<svg xmlns="http://www.w3.org/2000/svg" width="54" height="74" viewBox="0 0 54 74" fill="none"><path d="M14.0765 59.1914C14.6248 58.9206 15.2585 58.8648 15.8603 58.9001C15.891 61.7818 15.8648 64.6668 15.874 67.5496C15.8592 68.4768 15.949 69.4267 15.6771 70.3288C15.3723 71.487 14.6203 72.5154 13.6203 73.1707C12.3939 73.9886 10.7921 74.2241 9.38941 73.7611C7.3701 73.1547 5.8741 71.1411 5.90596 69.0285C5.9253 68.1514 5.93326 66.6349 5.93326 66.396C6.73757 66.4108 7.76486 66.4393 8.22788 67.2185C8.53504 68.0729 8.16872 69.024 8.49522 69.8783C8.78646 70.7111 9.54754 71.3664 10.4201 71.5131C11.3507 71.7043 12.3655 71.3061 12.9206 70.537C13.279 70.0808 13.4303 69.4927 13.4246 68.9193C13.4246 66.0343 13.4235 63.1492 13.4246 60.2653C13.4041 59.8159 13.6715 59.3802 14.0765 59.1914Z" fill="white"></path><path d="M18.7693 59.1028C19.2732 58.9231 19.8273 58.8434 20.3585 58.9174C20.362 63.5021 20.3608 68.089 20.3585 72.6749C20.3756 73.1049 20.0957 73.5076 19.7169 73.6942C19.1663 73.9615 18.5406 74.0173 17.9376 73.9957C17.9126 69.4189 17.9331 64.8411 17.9274 60.2632C17.8899 59.7319 18.2869 59.2712 18.7693 59.1028Z" fill="white"></path><path d="M22.6315 62.4751C23.1856 60.4614 25.1321 58.9393 27.2231 58.8961C28.8829 58.8915 30.5472 58.8608 32.2059 58.9108C32.2207 60.9563 32.2082 63.0018 32.2116 65.0473C32.2196 65.4909 32.1809 65.9403 32.2526 66.3806C34.4812 66.4056 42.7837 66.4511 43.7894 66.3533C44.9111 66.1257 45.7836 65.0586 45.7893 63.913C45.828 62.5991 44.7108 61.3556 43.3809 61.342C41.1398 61.326 38.8986 61.3465 36.6586 61.3329C36.141 61.3192 35.7997 60.8494 35.6257 60.4114C35.4482 59.929 35.3799 59.408 35.3799 58.8961C37.9692 58.8744 40.5596 58.8926 43.1489 58.8869C44.3639 58.879 45.5823 59.3045 46.5004 60.1065C47.6755 61.1179 48.3331 62.7003 48.2114 64.2475C48.1215 65.3692 47.6391 66.4614 46.8621 67.277C45.9714 68.2361 44.6858 68.8174 43.3753 68.8356C39.6688 68.8549 35.9613 68.8197 32.2548 68.8402C32.165 69.4226 32.2674 70.0279 32.0796 70.5978C31.6405 72.459 29.8954 73.9231 27.9773 73.988C26.2891 74.0062 24.5166 73.9709 22.8284 73.9664C22.8306 73.7605 22.834 73.492 22.8488 73.2383C22.8978 72.5295 23.2129 71.608 24.032 71.5147C25.2868 71.4783 26.5427 71.5136 27.7976 71.5C28.5495 71.5136 29.2754 71.0381 29.5859 70.3578C29.8066 69.9107 29.8066 69.3999 29.7884 68.9141L29.7862 68.8367C28.9147 68.8163 27.9762 68.8549 27.1047 68.822C25.6292 68.7446 24.2072 67.963 23.3608 66.7515C22.4893 65.5342 22.181 63.9119 22.6315 62.4751ZM24.8681 63.9108C24.8625 64.9506 25.5905 65.9233 26.5644 66.2634C26.9921 66.4295 27.4574 66.3806 27.9068 66.3885C28.5336 66.3794 29.1627 66.4056 29.7907 66.3783C29.7907 64.6992 29.7941 63.0189 29.7884 61.3397C28.9693 61.3192 28.1491 61.334 27.33 61.334C25.9842 61.3147 24.8044 62.5729 24.8681 63.9108Z" fill="white"></path><path d="M35.3333 71.1349C36.1069 71.1212 36.8816 71.1314 37.6552 71.1303C37.6939 71.6422 37.6688 72.1587 37.6723 72.673C37.6893 73.1075 37.3822 73.5011 37.0033 73.6854C36.4641 73.9403 35.852 74.0358 35.2605 73.979C35.2457 73.0518 35.2434 72.1235 35.2593 71.1963L35.3333 71.1349Z" fill="white"></path><path d="M52.9314 29.2336C52.9303 29.2313 52.9303 29.2302 52.9291 29.2279C52.2272 27.3747 51.1829 25.6478 49.8393 24.1438C48.3467 22.4715 45.3616 20.2326 43.985 19.5637L43.9668 19.5728C44.2171 16.3635 43.4162 12.706 43.4162 12.706L43.4151 12.7014V12.7003C42.0727 7.93929 39.5414 5.00077 37.0397 3.18396C33.6996 0.758509 30.4084 0.333031 30.0569 0.251121C30.0569 0.251121 27.6212 -0.308598 24.3198 0.247708C21.0104 0.805151 16.833 2.48545 13.3655 6.97457C13.3359 7.01211 13.3063 7.04852 13.2779 7.0872C13.2779 7.0872 9.58281 11.9233 10.2813 19.5079L10.2893 19.5387C7.16988 21.1314 4.31782 23.5033 2.45095 27.0232L2.45664 27.0437C2.40772 27.1358 2.3588 27.2291 2.31102 27.3235C0.35087 31.1892 -0.0643675 34.5851 0.299677 37.4349L0.297401 37.436C1.08692 43.5508 5.46342 47.1526 5.89231 47.4916C5.91506 47.5087 5.92758 47.5189 5.92758 47.5189C5.92758 47.5189 11.0754 51.7156 18.6532 51.4085L18.6521 51.4039C21.2152 51.2993 24.0559 50.6781 27.0695 49.206C28.9079 50.1832 31.058 51.0023 33.5529 51.4699L33.1365 52.4858C33.2377 52.2492 33.3834 51.9034 33.5631 51.4711C34.7428 51.669 41.2445 52.545 46.6608 48.9341C46.7563 48.8704 46.8507 48.8044 46.944 48.7384C46.9543 48.7316 46.9645 48.7248 46.9747 48.7168C50.283 46.3926 52.5173 42.8921 53.4616 38.9946C53.6936 38.0344 53.8495 37.0515 53.9212 36.0549C53.928 35.9559 53.9348 35.857 53.9405 35.758C54.0702 33.5168 53.713 31.2973 52.9314 29.2336ZM40.8872 33.5157C40.8997 33.51 40.9088 33.5066 40.9088 33.5066C40.9088 33.5066 40.8997 33.51 40.8872 33.5157Z" fill="#9DCD5C"></path><path d="M43.8804 19.6128L13.9844 33.7798L40.9089 33.5056L43.8804 19.6128Z" fill="#99CB5A"></path><path d="M19.6214 42.5616L13.9753 33.7847L13.9719 33.7858C13.9719 33.7858 17.9912 44.1315 27.2413 49.1781C27.0331 49.0324 26.883 48.9221 26.8488 48.8937C24.1413 47.169 21.6703 45.0405 19.6214 42.5616Z" fill="#99CB5A"></path><path d="M33.5529 51.4678C33.5563 51.4689 33.5598 51.4689 33.5632 51.4701C35.4027 47.0515 40.9089 33.5056 40.9089 33.5056L33.5529 51.4678Z" fill="#99CB5A"></path><path d="M52.9303 29.2272C52.2284 27.374 51.1841 25.6471 49.8405 24.1431C48.3479 22.4708 45.3628 20.2319 43.9862 19.563L43.8804 19.613L40.9089 33.5059L52.9303 29.2272Z" fill="#609C56"></path><path d="M53.9406 35.7587C54.0691 33.5164 53.713 31.2968 52.9315 29.2332C48.5811 30.7929 40.9294 33.5459 40.9089 33.5061L53.4616 38.9952C53.6937 38.0351 53.8496 37.0521 53.9212 36.0556C53.9292 35.9577 53.9349 35.8576 53.9406 35.7587Z" fill="#5FA656"></path><path d="M52.9303 29.2271L40.9089 33.5057C40.9305 33.5455 48.5823 30.7936 52.9315 29.2327C52.9315 29.2316 52.9303 29.2293 52.9303 29.2271Z" fill="#5FA656"></path><path d="M46.9748 48.717C50.2831 46.3928 52.5174 42.8923 53.4616 38.9947L40.9089 33.5056L46.9748 48.717Z" fill="#6CB156"></path><path d="M33.5632 51.4707C34.7429 51.6687 41.2445 52.5447 46.6608 48.9338C46.7564 48.8701 46.8508 48.8041 46.9441 48.7381C45.092 44.1512 40.9089 33.5051 40.9089 33.5051C40.9089 33.5051 35.4027 47.0521 33.5632 51.4707Z" fill="#7ABA59"></path><path d="M46.9441 48.7386C46.9543 48.7318 46.9646 48.725 46.9748 48.717L40.9089 33.5056C40.9089 33.5056 45.092 44.1516 46.9441 48.7386Z" fill="#7ABA59"></path><path d="M13.9719 33.7805L13.9751 33.7848L13.9837 33.7805H13.9719Z" fill="#99CB5A"></path><path d="M40.9089 33.5056C40.9089 33.5056 27.0661 39.3565 19.6214 42.5612L40.9089 33.5056Z" fill="#99CB5A"></path><path d="M13.9719 33.7805L18.651 51.4025C21.238 51.2979 24.1094 50.6665 27.1549 49.1637L17.9332 38.4005L13.9719 33.7805Z" fill="#609C56"></path><path d="M14.0652 34.132L13.9719 33.7805L5.89352 47.4913C5.91628 47.5084 5.92879 47.5186 5.92879 47.5186C5.92879 47.5186 11.0766 51.7154 18.6544 51.4082L14.0652 34.132Z" fill="#5FA656"></path><path d="M0.29747 37.4358C1.08699 43.5506 5.46349 47.1523 5.89238 47.4913L13.9708 33.7805L0.29747 37.4358Z" fill="#6CB156"></path><path d="M2.45785 27.0422C2.40893 27.1344 2.36001 27.2277 2.31223 27.3221C0.352077 31.1889 -0.0631623 34.5848 0.300882 37.4368C3.327 36.6052 13.9719 33.7805 13.9719 33.7805L2.45785 27.0422Z" fill="#7ABA59"></path><path d="M10.2905 19.5371C7.17108 21.1298 4.31901 23.5018 2.45215 27.0216L13.9719 33.7804L10.2905 19.5371Z" fill="#8CC55C"></path><path d="M27.5257 16.4224L27.5189 29.4313L13.9719 33.7805L27.5257 16.4224Z" fill="#A7D05A"></path><path d="M24.3221 0.246073L27.5257 16.4222L37.0409 3.18346C33.7008 0.758011 30.4096 0.332533 30.0581 0.250623C30.0581 0.250623 27.6224 -0.310233 24.3221 0.246073Z" fill="#0BA2C1"></path><path d="M13.3667 6.97409L27.5257 16.4222L24.3221 0.246094C21.0127 0.803537 16.8353 2.48383 13.3667 6.97409Z" fill="#0FAECC"></path><path d="M43.4163 12.701V12.6998C42.0738 7.9388 39.5426 5.00028 37.0409 3.18347L27.5257 16.4222L43.4163 12.701Z" fill="#1F98B7"></path><path d="M13.3667 6.97412C13.3371 7.01166 13.3075 7.04807 13.2791 7.08675C13.2791 7.08675 9.58401 11.9229 10.2825 19.5075C11.08 19.2208 27.5257 16.4234 27.5257 16.4234L13.3667 6.97412Z" fill="#18BCD7"></path><path d="M43.4174 12.7053L27.5257 16.422L43.3446 22.3832C44.8133 19.0818 43.4174 12.7053 43.4174 12.7053Z" fill="#168EB1"></path><path d="M27.5257 16.4224C27.5724 16.4451 43.3446 22.3836 43.3446 22.3836L40.9089 33.5063L27.5257 16.4224Z" fill="#187EA4"></path><path d="M40.9089 33.5063L27.5189 29.4313L27.5257 16.4224L40.9089 33.5063Z" fill="#196B9B"></path><path d="M33.5529 51.4685L40.9089 33.5063L19.312 42.6928C21.3609 45.1717 25.7954 50.0158 33.5529 51.4685Z" fill="#8CC55C"></path><path d="M40.9089 33.5063L13.9844 33.7805H13.9719C15.0367 36.6201 17.0333 39.5995 19.312 42.6928C26.7567 39.4892 40.9089 33.5063 40.9089 33.5063Z" fill="#99CB5A"></path><path d="M13.9719 33.7805L27.5257 16.4224C27.5257 16.4224 20.048 16.6601 17.1994 17.3029C14.5464 17.717 10.2825 19.5065 10.2825 19.5065L13.9719 33.7805Z" fill="#99CB5A"></path><path d="M40.9089 33.5059L13.9719 33.7801L27.5189 29.4309L40.9089 33.5059Z" fill="#9DCD5C"></path></svg>