<svg xmlns="http://www.w3.org/2000/svg" width="94" height="61" viewBox="0 0 94 61" fill="none"><path d="M41.1207 27.1986C46.933 27.1986 51.6449 22.4867 51.6449 16.6744C51.6449 10.862 46.933 6.15015 41.1207 6.15015C35.3083 6.15015 30.5964 10.862 30.5964 16.6744C30.5964 22.4867 35.3083 27.1986 41.1207 27.1986Z" fill="#40BBA1"></path><path d="M82.9442 0.302979H78.6616V27.1375H82.9442V0.302979Z" fill="#FFCF29"></path><path d="M23.1247 0.302979H18.8421V27.1375H23.1247V0.302979Z" fill="#40BBA1"></path><path d="M16.2908 6.68164H12.0082V33.5162H16.2908V6.68164Z" fill="#ED145C"></path><path d="M29.0019 6.59009H24.7193V27.1526H29.0019V6.59009Z" fill="#40BBA1"></path><path d="M53.2395 6.59009V15.7172C53.2395 22.0347 58.3573 27.1526 64.6749 27.1526C70.9925 27.1526 76.1103 22.0347 76.1103 15.7172V6.59009H53.2395ZM64.6749 24.3431C63.2018 24.3431 62.0021 23.1434 62.0021 21.6703C62.0021 20.1972 63.2018 18.9974 64.6749 18.9974C66.148 18.9974 67.3477 20.1972 67.3477 21.6703C67.3477 23.1434 66.148 24.3431 64.6749 24.3431Z" fill="#F68523"></path><path d="M2.30402 58.0121H5.34132V56.8883H2.30402V55.1418H5.41725V54.0332H1.18022V60.8823H5.41725V59.7737H2.30402V58.0121Z" fill="white"></path><path d="M10.5503 57.1009C11.2185 56.5542 11.2033 55.7645 10.9755 55.1874C10.687 54.4584 10.0643 54.0332 9.27461 54.0332H6.41956V60.8823H9.5176C10.8388 60.8823 11.5374 59.8344 11.5374 58.7866C11.5374 58.0272 11.1729 57.4046 10.5503 57.1009ZM9.25943 56.706H7.51298V55.0963H9.27461C9.76058 55.0963 9.98838 55.5063 9.98838 55.886C9.98838 56.2808 9.76058 56.706 9.25943 56.706ZM9.5176 59.7889H7.51298V57.7994H9.5176C10.1402 57.7994 10.4288 58.3158 10.4288 58.7866C10.4288 59.2725 10.1402 59.7889 9.5176 59.7889Z" fill="white"></path><path d="M15.091 56.8882C14.2862 56.8123 13.6787 56.706 13.6331 56.1137C13.6179 55.8859 13.6635 55.6885 13.785 55.5366C14.0128 55.2481 14.4532 55.0658 14.9544 55.0506C14.9695 55.0506 14.9695 55.0506 14.9847 55.0506C15.5314 55.0506 16.1389 55.2936 16.2604 55.8555L16.2756 55.9163L17.369 55.8707L17.3538 55.7948C17.1564 54.4432 15.9719 53.9724 14.9999 53.9724C14.1495 53.9724 13.3446 54.3217 12.9042 54.8988C12.6156 55.2784 12.479 55.734 12.5245 56.22C12.646 57.769 14.1495 57.9209 14.9695 58.012C15.6833 58.0879 16.2908 58.1791 16.3819 58.6195C16.3971 58.6954 16.4123 58.7713 16.4123 58.8321C16.4123 59.4699 15.6681 59.8496 14.9847 59.8496C14.3621 59.8496 13.6635 59.5155 13.6028 58.9688L13.5876 58.8017L12.4638 58.8169L12.479 59.0751C12.6005 60.29 13.8609 60.943 14.9695 60.943C16.23 60.943 17.5361 60.1533 17.5361 58.8321C17.5361 58.6954 17.5209 58.5284 17.4905 58.3765C17.2171 57.2831 16.1237 57.0097 15.091 56.8882Z" fill="white"></path><path d="M20.6493 53.9417L17.9309 60.7756L17.9005 60.8667H19.1003L19.1154 60.8212C19.2825 60.396 19.5407 59.7581 19.9051 58.8925H22.2135L23.0032 60.8212L23.0184 60.8667H24.2029L21.4542 53.9265H20.6493V53.9417ZM21.7883 57.8446H20.3152L21.0593 55.7641L21.7883 57.8446Z" fill="white"></path><path d="M29.6245 56.2352C29.6245 55.1722 28.9259 54.0332 27.3617 54.0332H24.8407V60.8823H25.9342V55.157H27.3465C28.1362 55.157 28.5007 55.7189 28.5007 56.2504C28.5007 56.782 28.1362 57.3439 27.3465 57.3439H26.1468V57.9058L28.607 60.8671L28.6222 60.8975H30.0649L27.9236 58.3462C28.9715 58.1032 29.6245 57.2831 29.6245 56.2352Z" fill="white"></path><path d="M33.6185 60.8823H34.7272V58.0121H37.4152V56.8883H34.7272V55.1418H37.7645V54.0332H33.6185V60.8823Z" fill="white"></path><path d="M41.9863 53.9419C41.0751 53.9419 40.1639 54.3216 39.5261 54.9746C38.8731 55.658 38.5086 56.5236 38.5086 57.45C38.5086 58.3763 38.8731 59.242 39.5261 59.9254C40.1639 60.5784 41.0599 60.9581 41.9863 60.9581C42.9279 60.9581 43.8087 60.5936 44.4617 59.9254C45.1147 59.242 45.4792 58.3763 45.4792 57.45C45.4792 56.5236 45.1147 55.658 44.4617 54.9746C43.7935 54.3064 42.9127 53.9419 41.9863 53.9419ZM41.9863 59.8494C41.3637 59.8494 40.7562 59.5913 40.3158 59.1357C39.8602 58.6801 39.6172 58.0878 39.6172 57.45C39.6172 56.8121 39.8602 56.2199 40.3158 55.7643C40.7562 55.3087 41.3637 55.0505 41.9863 55.0505C42.609 55.0505 43.2164 55.3087 43.672 55.7643C44.1124 56.2199 44.3554 56.8121 44.3554 57.45C44.3554 58.0878 44.1124 58.6801 43.672 59.1357C43.2164 59.5913 42.609 59.8494 41.9863 59.8494Z" fill="white"></path><path d="M50.6426 58.7866C50.6426 59.47 49.9137 59.8344 49.2151 59.8344C48.5165 59.8344 47.7875 59.47 47.7875 58.8018V54.0332H46.6637V58.7866C46.6637 60.1837 47.985 60.9431 49.2151 60.9431C50.8097 60.9431 51.7664 59.8496 51.7664 58.8018V54.0332H50.6426V58.7866Z" fill="white"></path><path d="M57.0057 58.5892L53.8773 54.0484L53.8469 54.0181H52.9965V60.8824H54.1051V56.3416L57.2335 60.8824H58.1143V54.0181H57.0057V58.5892Z" fill="white"></path><path d="M61.8198 54.0332H59.3444V60.8823H61.8198C63.4448 60.8823 65.1912 59.8193 65.1912 57.4654C65.1912 55.1114 63.4448 54.0332 61.8198 54.0332ZM61.8198 59.7737H60.4531V55.157H61.8198C62.9133 55.157 64.0826 55.886 64.0826 57.4805C64.0826 58.574 63.384 59.7737 61.8198 59.7737Z" fill="white"></path><path d="M68.1374 53.9417L65.419 60.7756L65.3887 60.8667H66.5884L66.6036 60.8212C66.7706 60.396 67.0288 59.7581 67.3933 58.8925H69.7016L70.4913 60.8212L70.5065 60.8667H71.6911L68.9423 53.9265H68.1374V53.9417ZM69.2764 57.8446H67.8033L68.5475 55.7641L69.2764 57.8446Z" fill="white"></path><path d="M71.0532 55.1419H73.0882V60.8975H74.1968V55.1419H76.2166V54.0181H71.0532V55.1419Z" fill="white"></path><path d="M83.9769 53.9419C83.0657 53.9419 82.1545 54.3216 81.5167 54.9746C80.8637 55.658 80.4992 56.5236 80.4992 57.45C80.4992 58.3763 80.8637 59.242 81.5167 59.9254C82.1545 60.5784 83.0505 60.9581 83.9769 60.9581C84.9185 60.9581 85.7993 60.5936 86.4523 59.9254C87.1053 59.242 87.4698 58.3763 87.4698 57.45C87.4698 56.5236 87.1053 55.658 86.4523 54.9746C85.7841 54.3064 84.9185 53.9419 83.9769 53.9419ZM83.9769 59.8494C83.3543 59.8494 82.7468 59.5913 82.3064 59.1357C81.8508 58.6801 81.6078 58.0878 81.6078 57.45C81.6078 56.8121 81.8508 56.2199 82.3064 55.7643C82.7468 55.3087 83.3543 55.0505 83.9769 55.0505C84.5996 55.0505 85.207 55.3087 85.6626 55.7643C86.103 56.2199 86.346 56.8121 86.346 57.45C86.346 58.0878 86.103 58.6801 85.6626 59.1357C85.2222 59.5913 84.5996 59.8494 83.9769 59.8494Z" fill="white"></path><path d="M92.6636 54.0181V58.5892L89.52 54.0484L89.5048 54.0181H88.6392V60.8824H89.7478V56.3416L92.8914 60.8824H93.757V54.0181H92.6636Z" fill="white"></path><path d="M77.1886 55.1266H77.9631V59.7737H77.1886V60.8823H79.8614V59.7737H79.0869V55.1266H79.8614V54.0332H77.1886V55.1266Z" fill="white"></path><path d="M10.9299 41.0339H9.45686V45.1038C9.45686 45.1798 9.42649 45.2557 9.36574 45.3164C9.30499 45.3772 9.22906 45.4076 9.13794 45.4076H6.92071H6.78404H6.58661C6.51068 45.4076 6.43475 45.3772 6.38919 45.3164C6.32844 45.2709 6.29807 45.1949 6.29807 45.1038V41.3528C6.29807 41.3528 5.41725 40.8364 3.76193 40.8364C3.0026 40.8364 2.36477 41.0946 1.84843 41.6261C1.27134 42.2184 0.997986 42.9473 0.997986 43.8434C0.997986 44.8153 1.30172 45.5898 1.92436 46.1669C2.39514 46.5769 2.94186 46.7743 3.57969 46.7743C4.15677 46.7743 4.67311 46.5769 5.12871 46.1973C5.43244 46.501 5.76654 46.6529 6.1462 46.6529H6.78404H6.92071H9.62391C10.0188 46.6529 10.3529 46.501 10.6262 46.1821C10.8388 45.9087 10.9451 45.6202 10.9451 45.3013V41.0339H10.9299ZM4.80979 45.362C4.49088 45.4987 4.18715 45.5594 3.8986 45.5594C3.47338 45.5594 3.12409 45.4076 2.86592 45.0886C2.60775 44.7849 2.48626 44.3749 2.48626 43.8585C2.48626 43.3422 2.62294 42.9322 2.91148 42.6132C3.20003 42.2943 3.5645 42.1273 4.00491 42.1273C4.26308 42.1273 4.53644 42.1728 4.82498 42.2791V45.362H4.80979Z" fill="white"></path><path d="M31.6595 46.6527H32.3884H33.1478V37.9053H31.6595V46.6527Z" fill="white"></path><path d="M53.528 45.1037C53.528 45.1796 53.4977 45.2555 53.4369 45.3163C53.3762 45.377 53.3002 45.4074 53.2091 45.4074H51.5538H51.326H50.5819C50.5819 45.3618 50.5819 45.3011 50.5819 45.2252C50.597 45.134 50.597 45.0733 50.597 45.0125V43.8887C50.597 43.0383 50.3085 42.3397 49.7314 41.793C49.0936 41.1856 46.6182 40.2592 44.5073 43.0839V41.0337H43.019L43.0342 45.4074H41.9104H41.637H41.5915C41.4852 45.4074 41.4092 45.377 41.3637 45.3011C41.3181 45.2555 41.2877 45.1948 41.2877 45.1037V37.9053H39.7995V45.3011C39.7995 45.6959 39.9513 46.0149 40.2399 46.2882C40.498 46.5312 40.7866 46.6375 41.1207 46.6375H41.637H41.9104H49.2606C49.6859 46.6375 50.0351 46.4704 50.2933 46.1363H50.3237L50.7337 46.6375H51.3108H51.5386H53.6647C54.0596 46.6375 54.3937 46.4856 54.667 46.1667C54.8796 45.8934 54.9859 45.6048 54.9859 45.2859V41.0033H53.5128V45.1037H53.528ZM49.1088 45.1037C49.1088 45.3011 49.0025 45.4074 48.805 45.4074H44.5073C44.9021 44.4506 45.4184 43.7065 46.0563 43.175C47.7724 41.9145 49.1088 42.8864 49.1088 43.9647V45.1037Z" fill="white"></path><path d="M57.6587 46.6527V37.9053H56.1705V46.6527H56.8994H57.6587Z" fill="white"></path><path d="M28.9563 45.1035C28.9563 45.1795 28.9259 45.2554 28.8652 45.3161C28.8044 45.3769 28.7285 45.4073 28.6374 45.4073H27.4225H27.2858H26.5568V45.225V43.919C26.5568 43.0685 26.2835 42.37 25.7367 41.8232C25.1293 41.2006 24.3396 40.8969 23.3525 40.8969C22.7146 40.8969 22.0161 41.0184 21.2416 41.2462V42.4307C22.0464 42.2485 22.6539 42.1573 23.0487 42.1573C23.6562 42.1573 24.1422 42.3244 24.5066 42.6585C24.8711 42.9926 25.0685 43.4482 25.0685 43.9949V45.0883C25.0685 45.2858 24.9622 45.3921 24.7648 45.3921H19.8292H19.7381H19.1914V45.2098V41.0184H17.7183V45.0428C17.7183 45.1339 17.6879 45.225 17.612 45.2858C17.5664 45.3465 17.4753 45.3769 17.369 45.3769H15.1973H14.9392H14.5747V41.0032H13.0864V46.197C13.0864 47.5941 12.3726 48.2927 10.9299 48.2927C10.8996 48.2927 10.854 48.2927 10.8236 48.2927V49.5076C10.9755 49.5076 11.1122 49.5228 11.2488 49.5228C12.0993 49.5228 12.8282 49.3102 13.4053 48.8698C14.1191 48.3534 14.4988 47.5941 14.5595 46.6222H14.9392H15.1973H17.8853C18.2954 46.6222 18.6447 46.4551 18.918 46.121H18.9484L19.404 46.6222H19.7381H19.8292H25.2508C25.6608 46.6222 26.0101 46.4551 26.2835 46.121H26.3138L26.7239 46.6222H27.3161H27.4528H29.1385C29.5486 46.6222 29.8827 46.4703 30.1256 46.1514C30.3383 45.9084 30.4597 45.6199 30.4597 45.2706V37.8748H28.9867V45.1035H28.9563Z" fill="white"></path><path d="M37.0659 46.2273C37.0659 47.6244 36.3521 48.323 34.9094 48.323V49.5379C35.0157 49.5379 35.1068 49.5531 35.1827 49.5531C35.5017 49.5531 35.8054 49.5227 36.0939 49.462C36.7166 49.3101 37.2329 49.052 37.6278 48.6875C38.2504 48.1408 38.5541 47.3511 38.5541 46.3488V41.0183H37.0659V46.2273Z" fill="white"></path><path d="M56.9602 48.43C56.8994 48.354 56.8691 48.2629 56.8691 48.1414C56.8691 47.8529 57.0057 47.7162 57.2639 47.7162C57.3702 47.7162 57.4765 47.7314 57.598 47.7618V47.3062C57.431 47.2606 57.2791 47.2302 57.1424 47.2302C56.8843 47.2302 56.6868 47.3062 56.535 47.458C56.3831 47.6099 56.3072 47.8073 56.3072 48.0655C56.3072 48.2477 56.3527 48.4148 56.459 48.5666H56.0946V49.0374H57.7195V48.5666H57.2639C57.1424 48.5818 57.0361 48.5363 56.9602 48.43Z" fill="white"></path><path d="M93.1192 41.8386C92.5117 41.2159 91.722 40.9122 90.7349 40.9122C90.1275 40.9122 89.4289 41.0337 88.624 41.2615V42.446C89.3985 42.279 89.9908 42.1879 90.3553 42.1879C91.0083 42.1879 91.5094 42.3549 91.8891 42.6738C92.2536 42.9927 92.451 43.4483 92.451 44.0102V45.1037C92.451 45.3011 92.3447 45.4074 92.1473 45.4074H87.0294H87.0142H86.9231C86.8472 45.4074 86.7712 45.377 86.7105 45.3163C86.6649 45.2555 86.6498 45.1796 86.6498 45.1037V43.1446C86.6498 42.3853 86.3764 41.793 85.8449 41.383C85.4045 41.0641 84.8426 40.897 84.144 40.897C83.3695 40.9122 82.7316 41.14 82.2457 41.5804C81.6534 42.1119 81.3497 42.8561 81.3497 43.8128C81.3497 44.4051 81.4408 44.9214 81.6382 45.4074H79.4817H79.4514H77.5075C77.6138 45.0277 77.8416 44.6633 78.1757 44.2836C78.5402 43.9191 78.8743 43.6761 79.2084 43.5243L79.3603 43.175C79.0717 42.4005 78.6009 41.8082 77.9479 41.3982C77.4164 41.0489 76.8393 40.8818 76.2015 40.8818C75.5636 40.8818 74.9714 41.0337 74.4246 41.3526C73.6957 41.7626 73.1945 42.3701 72.906 43.175L73.0427 43.5243C73.4223 43.6761 73.7716 43.9495 74.1361 44.3443C74.455 44.724 74.6676 45.0733 74.7587 45.4074H71.2355H71.2051H70.6128V45.2252V41.0337H69.1398V45.0581C69.1398 45.1492 69.1094 45.2403 69.0334 45.3011C68.9879 45.3618 68.8968 45.3922 68.7905 45.3922H66.6188H66.5884H66.2695C66.1936 45.3922 66.1176 45.3618 66.0721 45.3011C66.0113 45.2555 65.981 45.1796 65.981 45.0885V41.4437C65.981 41.4437 64.9179 40.7907 63.46 40.8363C62.7007 40.8514 62.0628 41.0944 61.5465 41.626C60.9694 42.2182 60.6961 42.9472 60.6961 43.8432C60.6961 44.8151 60.9998 45.5896 61.6224 46.1667C62.0932 46.5768 62.6399 46.7742 63.2778 46.7742C63.8548 46.7742 64.3712 46.5768 64.8268 46.1971C65.1305 46.5008 65.4646 46.6527 65.8443 46.6527H66.5884H66.6188H69.3068C69.7168 46.6527 70.0661 46.4856 70.3395 46.1515H70.3699L70.8254 46.6527H71.2355H71.2659H75.4877C75.7307 46.6527 75.9433 46.5464 76.1407 46.3338H76.2015C76.3837 46.5464 76.5963 46.6527 76.8241 46.6527H79.4817H79.5121H81.8205L82.1698 46.2427H82.2001C82.7013 46.759 83.2935 47.0172 84.0073 47.0172C84.6603 47.0172 85.1919 46.759 85.6019 46.2578C85.8601 46.516 86.179 46.6527 86.5435 46.6527H87.0598H87.075H92.6788C93.0585 46.6527 93.3926 46.5008 93.6507 46.2123C93.8785 45.9389 94 45.6352 94 45.3163V43.9191C93.9393 43.0991 93.6659 42.4005 93.1192 41.8386ZM64.5079 45.377C64.189 45.5137 63.8852 45.5744 63.5967 45.5744C63.1715 45.5744 62.8222 45.4226 62.564 45.1037C62.3058 44.7999 62.1843 44.3899 62.1843 43.8736C62.1843 43.3572 62.321 42.9472 62.6096 42.6283C62.8981 42.3094 63.2626 42.1423 63.703 42.1423C63.9612 42.1423 64.2345 42.1879 64.5231 42.2942V45.377H64.5079ZM76.9608 43.7824C76.5811 44.1925 76.323 44.6329 76.1711 45.0885H76.1255C75.9585 44.6481 75.7155 44.2229 75.3662 43.8432C75.0625 43.4787 74.7587 43.2357 74.4854 43.1142C74.6676 42.7953 74.9106 42.5372 75.2447 42.3853C75.5333 42.2486 75.8522 42.1727 76.1711 42.1727C76.4748 42.1727 76.7634 42.2334 77.0063 42.3549C77.3404 42.522 77.5986 42.7649 77.796 43.1142C77.5379 43.2205 77.2645 43.4483 76.9608 43.7824ZM85.1463 45.3011C84.8122 45.6352 84.4781 45.8022 84.1136 45.8022C83.734 45.8022 83.415 45.62 83.1721 45.2707C82.9291 44.9062 82.8076 44.4506 82.8076 43.8736C82.8076 43.3572 82.9291 42.932 83.1721 42.6283C83.415 42.3245 83.734 42.1575 84.1288 42.1575C84.4477 42.1575 84.6907 42.2486 84.8578 42.4308C85.04 42.6131 85.1311 42.8561 85.1311 43.1598V45.3011H85.1463Z" fill="white"></path><path d="M3.29113 40.1978C3.72727 40.1978 4.08083 39.8442 4.08083 39.4081C4.08083 38.972 3.72727 38.6184 3.29113 38.6184C2.85499 38.6184 2.50143 38.972 2.50143 39.4081C2.50143 39.8442 2.85499 40.1978 3.29113 40.1978Z" fill="white"></path><path d="M5.08314 40.1978C5.51928 40.1978 5.87284 39.8442 5.87284 39.4081C5.87284 38.972 5.51928 38.6184 5.08314 38.6184C4.647 38.6184 4.29344 38.972 4.29344 39.4081C4.29344 39.8442 4.647 40.1978 5.08314 40.1978Z" fill="white"></path><path d="M63.1563 40.2132C63.5967 40.2132 63.946 39.8639 63.946 39.4235C63.946 38.9831 63.5967 38.6338 63.1563 38.6338C62.7159 38.6338 62.3666 38.9831 62.3666 39.4235C62.3666 39.8639 62.7159 40.2132 63.1563 40.2132Z" fill="white"></path><path d="M64.9635 40.1978C65.3996 40.1978 65.7532 39.8442 65.7532 39.4081C65.7532 38.972 65.3996 38.6184 64.9635 38.6184C64.5273 38.6184 64.1738 38.972 64.1738 39.4081C64.1738 39.8442 64.5273 40.1978 64.9635 40.1978Z" fill="white"></path><path d="M7.55854 47.6702C7.11813 47.6702 6.76884 48.0194 6.76884 48.4599C6.76884 48.9003 7.11813 49.2496 7.55854 49.2496C7.99895 49.2496 8.34824 48.9003 8.34824 48.4599C8.36343 48.0194 7.99895 47.6702 7.55854 47.6702Z" fill="white"></path><path d="M9.36573 47.6702C8.92532 47.6702 8.57603 48.0194 8.57603 48.4599C8.57603 48.9003 8.92532 49.2496 9.36573 49.2496C9.80614 49.2496 10.1554 48.9003 10.1554 48.4599C10.1554 48.0194 9.80614 47.6702 9.36573 47.6702Z" fill="white"></path><path d="M16.0933 47.6702C15.6529 47.6702 15.3036 48.0194 15.3036 48.4599C15.3036 48.9003 15.6529 49.2496 16.0933 49.2496C16.5337 49.2496 16.883 48.9003 16.883 48.4599C16.883 48.0194 16.5337 47.6702 16.0933 47.6702Z" fill="white"></path><path d="M17.8854 47.6702C17.445 47.6702 17.0957 48.0194 17.0957 48.4599C17.0957 48.9003 17.445 49.2496 17.8854 49.2496C18.3258 49.2496 18.6751 48.9003 18.6751 48.4599C18.6903 48.0194 18.3258 47.6702 17.8854 47.6702Z" fill="white"></path><path d="M67.6667 47.6702C67.2263 47.6702 66.877 48.0194 66.877 48.4599C66.877 48.9003 67.2263 49.2496 67.6667 49.2496C68.1071 49.2496 68.4564 48.9003 68.4564 48.4599C68.4716 48.0194 68.1071 47.6702 67.6667 47.6702Z" fill="white"></path><path d="M69.4738 47.6702C69.0334 47.6702 68.6841 48.0194 68.6841 48.4599C68.6841 48.9003 69.0334 49.2496 69.4738 49.2496C69.9142 49.2496 70.2635 48.9003 70.2635 48.4599C70.2635 48.0194 69.9142 47.6702 69.4738 47.6702Z" fill="white"></path><path d="M24.4915 40.1978C24.9276 40.1978 25.2812 39.8442 25.2812 39.4081C25.2812 38.972 24.9276 38.6184 24.4915 38.6184C24.0554 38.6184 23.7018 38.972 23.7018 39.4081C23.7018 39.8442 24.0554 40.1978 24.4915 40.1978Z" fill="white"></path><path d="M53.4825 47.6702C53.0421 47.6702 52.6928 48.0194 52.6928 48.4599C52.6928 48.9003 53.0421 49.2496 53.4825 49.2496C53.9229 49.2496 54.2722 48.9003 54.2722 48.4599C54.2722 48.0194 53.9077 47.6702 53.4825 47.6702Z" fill="white"></path><path d="M91.4638 47.6702C91.0234 47.6702 90.6741 48.0194 90.6741 48.4599C90.6741 48.9003 91.0234 49.2496 91.4638 49.2496C91.9043 49.2496 92.2535 48.9003 92.2535 48.4599C92.2535 48.0194 91.8891 47.6702 91.4638 47.6702Z" fill="white"></path></svg>