<svg xmlns="http://www.w3.org/2000/svg" width="62" height="76" viewBox="0 0 62 76" fill="none"><path d="M53.1421 11.5264C53.6542 11.0336 54.2763 10.6689 54.9573 10.4621C55.6383 10.2554 56.3588 10.2125 57.0596 10.337C57.8312 10.4791 58.5531 10.8171 59.1554 11.3182C59.7577 11.8193 60.2203 12.4668 60.4983 13.1979C61.0951 14.752 60.7211 16.6275 59.5557 17.8189C55.8385 21.5136 52.1158 25.203 48.3878 28.887C46.6143 30.5743 44.4841 31.8443 42.1536 32.6039C39.5022 29.9793 36.8542 27.3514 34.2096 24.7201C33.7418 24.247 33.2337 23.811 32.8224 23.2867C33.6571 23.8512 34.5765 24.3103 35.5735 24.5052C37.2771 24.8603 39.0523 24.5721 40.5547 23.6965C41.6828 23.0546 42.5074 22.03 43.4369 21.1459C46.68 17.9495 49.8959 14.7218 53.1421 11.5264Z" fill="#139BA3"></path><path d="M35.3578 0.677092C37.5459 0.453719 39.7566 0.670166 41.8592 1.31361C43.9618 1.95706 45.9134 3.01442 47.5984 4.42307C44.0942 7.91088 40.5859 11.3933 37.0736 14.8704C35.8881 13.6964 34.7036 12.5204 33.52 11.3424C32.7821 10.5749 31.6762 10.2696 30.6358 10.2686C28.8262 10.2686 27.1174 11.474 26.4531 13.1416C25.7777 14.7489 26.1638 16.7148 27.3856 17.9534C28.9452 19.4823 30.4886 21.0273 32.0351 22.5683C32.276 22.8315 32.5613 23.0455 32.8224 23.2866C33.2337 23.8109 33.7418 24.2469 34.2096 24.7201C36.8609 27.3439 39.5089 29.9719 42.1536 32.6038C38.6922 33.7365 34.9515 33.6924 31.518 32.4784C28.0845 31.2644 25.1525 28.9493 23.1817 25.896C21.2109 22.8427 20.3128 19.2239 20.6283 15.6073C20.9437 11.9906 22.4549 8.58051 24.9248 5.91182C27.6094 2.98154 31.3909 1.06585 35.3578 0.677092Z" fill="#18C8D2"></path><path d="M19.9124 44.7566C20.5899 44.0534 21.2784 43.3673 21.9579 42.6702C22.6394 43.3734 23.331 44.0605 24.0094 44.7626C23.3421 45.4447 22.6394 46.0917 21.9821 46.7828C21.2543 46.1479 20.603 45.4287 19.9124 44.7566Z" fill="white"></path><path d="M24.3129 44.7648C24.9894 44.0616 25.6789 43.3685 26.3645 42.6733C27.0621 43.3672 27.759 44.0616 28.4553 44.7568C27.7587 45.4409 27.0621 46.126 26.3574 46.801C25.6739 46.124 24.9924 45.4452 24.3129 44.7648Z" fill="white"></path><path d="M36.8408 43.9371C38.0728 42.8401 40.3451 43.0269 41.1949 44.5046C40.7624 44.7437 40.3289 44.9818 39.9055 45.237C39.8309 44.8452 39.718 44.3951 39.3379 44.1882C38.8924 43.9632 38.2542 44.0214 37.9457 44.4464C37.6937 44.797 37.6594 45.25 37.6624 45.6659C37.6756 46.0436 37.726 46.4515 37.9709 46.7568C38.0684 46.8718 38.1911 46.9629 38.3296 47.0232C38.468 47.0834 38.6185 47.1112 38.7694 47.1044C39.5638 47.1044 40.3582 47.1044 41.1526 47.1044C41.1526 47.3807 41.1526 47.6569 41.1526 47.9332C39.8491 47.9613 38.5405 47.8709 37.2411 47.9955C36.7592 48.0125 36.4154 48.4033 36.2128 48.7991C35.8095 48.5922 35.3962 48.4023 34.998 48.1843C35.4285 47.6107 36.122 47.3164 36.8126 47.1888C35.9003 46.3641 35.8952 44.7397 36.8408 43.9371Z" fill="white"></path><path d="M57.8299 45.4016C58.9227 44.8371 60.0034 44.2474 61.0921 43.6748C61.0921 50.4716 61.0921 57.2691 61.0921 64.0672C60.6748 64.0582 60.2574 64.0753 59.8401 64.0592C59.4545 64.036 59.0826 63.9082 58.7647 63.6895C58.4468 63.4708 58.195 63.1696 58.0365 62.8186C57.6252 63.2294 57.23 63.6584 56.8177 64.0652H45.8211C45.8211 63.5884 45.8211 63.1116 45.8211 62.6347H49.532C49.532 58.4277 49.5209 54.2196 49.5391 50.0125C50.6329 49.449 51.7106 48.8583 52.8004 48.2887C52.8004 53.0704 52.8004 57.8524 52.8004 62.6347C54.5142 62.6347 56.228 62.6347 57.9418 62.6347C57.8575 62.3752 57.8156 62.1039 57.8178 61.8311C57.8289 56.3563 57.8178 50.8785 57.8299 45.4016Z" fill="white"></path><path d="M20.1433 49.5122C21.7624 48.6744 23.6526 48.4333 25.4501 48.6744C27.053 48.8924 28.6115 49.5634 29.7941 50.6755C30.5255 51.3603 31.1118 52.1843 31.5182 53.0988C31.9246 54.0132 32.1429 54.9996 32.1601 55.9996C32.1773 58.2096 32.1601 60.4196 32.1682 62.6296C34.4173 62.6296 36.6674 62.6296 38.9166 62.6296C38.838 62.3723 38.7976 62.105 38.7966 61.836C38.7966 58.3616 38.7966 54.8862 38.7966 51.4098C39.8874 50.8278 40.9795 50.2482 42.073 49.6709C42.073 54.4666 42.073 59.2624 42.073 64.0581C41.6748 64.0581 41.2776 64.0651 40.8804 64.0581C40.087 64.037 39.3531 63.5197 39.0123 62.8145C38.5879 63.2163 38.2058 63.6593 37.7804 64.0621C35.5232 64.0561 33.265 64.0621 31.0068 64.0621C30.2003 64.0561 29.4553 63.5267 29.1025 62.8165C28.7154 63.2263 28.3252 63.6342 27.9502 64.0561C21.3057 64.0722 14.6612 64.0561 8.01564 64.0641C6.05384 64.0762 4.05574 63.4403 2.57179 62.1434C1.79387 61.4594 1.16528 60.6235 0.724973 59.6874C0.284671 58.7514 0.0420542 57.7351 0.0121681 56.7018C-0.0100106 55.2723 0.00511105 53.8418 0.00410293 52.4123C1.09556 51.8337 2.18702 51.2537 3.27848 50.6724V55.7063C3.26336 56.966 3.2936 58.2649 3.75532 59.4563C4.212 60.6256 5.00136 61.7466 6.18892 62.261C6.86622 62.5284 7.5908 62.6565 8.31908 62.6377C11.9772 62.6377 15.6354 62.6377 19.2935 62.6377C17.7526 61.5643 16.677 59.9491 16.2832 58.1172C16.0105 56.7872 16.0471 55.4127 16.3901 54.099C16.6657 53.1184 17.1413 52.205 17.787 51.4159C18.4328 50.6267 19.2349 49.9786 20.1433 49.5122ZM22.2604 50.4062C20.9912 50.9778 20.1726 52.2205 19.7401 53.4983C19.3459 54.7961 19.3278 56.1774 19.4306 57.5165C19.5556 59.0474 20.1564 60.6024 21.3238 61.6351C22.0608 62.3062 23.0709 62.5714 24.0458 62.6216C25.7021 62.6286 27.3585 62.6216 29.0138 62.6216C28.9336 62.3632 28.8925 62.0944 28.8918 61.824C28.8918 59.9147 28.8918 58.006 28.8918 56.098C28.8767 54.8815 28.7204 53.6258 28.1256 52.5419C27.5611 51.4088 26.558 50.4103 25.2777 50.1581C24.2797 49.8999 23.21 50.0255 22.2604 50.4062Z" fill="white"></path><path d="M52.6834 67.2688C53.7137 66.1929 55.5374 66.0935 56.7492 66.9172C57.6888 67.5852 58.1162 68.7565 58.1827 69.8686C58.219 70.8731 58.2311 71.9329 57.8087 72.8752C57.584 73.3942 57.2292 73.847 56.7784 74.1902C57.2553 74.5749 57.7442 74.9456 58.219 75.3344C57.9781 75.5564 57.7361 75.7774 57.4982 76.0004C56.9196 75.5554 56.352 75.0963 55.7844 74.6462C54.9174 74.8351 53.9617 74.7547 53.2067 74.2625C52.4697 73.8044 51.9969 73.0138 51.7903 72.1881C51.5967 71.4658 51.6189 70.7104 51.636 69.97C51.6683 68.9916 51.9828 67.982 52.6834 67.2688ZM54.5414 67.32C54.2446 67.3685 53.963 67.4843 53.7183 67.6585C53.4735 67.8326 53.2723 68.0606 53.13 68.3246C52.7268 69.0368 52.6754 69.8786 52.6935 70.6793C52.6865 71.5251 52.7943 72.4412 53.3498 73.1223C54.1079 74.0757 55.7794 74.0837 56.5163 73.1002C57.0587 72.383 57.1303 71.4447 57.1212 70.5788C57.1303 69.6888 57.0526 68.7164 56.475 67.9931C56.0304 67.4155 55.2431 67.2045 54.5414 67.32Z" fill="white"></path><path d="M31.9464 66.4861H33.0281C33.0351 68.9081 33.0281 71.329 33.0281 73.751H36.8952C36.8952 74.0437 36.8952 74.3363 36.8952 74.629C35.2459 74.629 33.5956 74.629 31.9464 74.629C31.9443 71.9157 31.9484 69.2014 31.9464 66.4861Z" fill="white"></path><path d="M40.5789 66.4861C40.8944 66.4861 41.21 66.4861 41.5265 66.4861C42.5649 69.2004 43.6066 71.9127 44.6517 74.623C44.2868 74.623 43.9228 74.623 43.5589 74.633C43.2716 73.9298 43.0317 73.2096 42.7665 72.4983C41.6263 72.4923 40.4861 72.4983 39.346 72.4983C39.0838 73.2065 38.8308 73.9188 38.5667 74.626H37.4678C38.5035 71.9123 39.5405 69.199 40.5789 66.4861ZM41.0467 67.8272C40.5863 69.0889 40.1259 70.3513 39.6655 71.6143C40.59 71.6143 41.5144 71.6143 42.4389 71.6143C41.9772 70.3536 41.5285 69.0849 41.0507 67.8272H41.0467Z" fill="white"></path><path d="M44.3563 66.4892C44.7686 66.4892 45.181 66.4892 45.5943 66.4892C46.3 67.8473 47.0057 69.2125 47.7114 70.5707C48.4392 69.2155 49.1227 67.8353 49.8566 66.4841C50.2599 66.4952 50.6631 66.4841 51.0664 66.4912C50.1557 68.152 49.2407 69.8095 48.3213 71.4637C48.2386 71.5863 48.2557 71.7369 48.2527 71.8766C48.2578 72.7957 48.2527 73.7139 48.2527 74.6331H47.177C47.165 73.6185 47.1952 72.6019 47.1629 71.5883C46.2435 69.8795 45.2909 68.1889 44.3563 66.4892Z" fill="white"></path></svg>