<svg xmlns="http://www.w3.org/2000/svg" width="78" height="81" viewBox="0 0 78 81" fill="none"><path d="M3.66922 39.1454C3.66922 39.1454 2.95111 23.3066 17.4566 23.3066C34.8842 23.3066 42.1365 43.1554 58.3282 48.904C61.7512 50.1193 66.8388 50.1006 69.4154 47.8667C74.5031 43.4559 74.0143 39.1997 74.0143 39.1997L74.8804 39.1454C74.8804 39.1454 76.2342 54.884 60.5387 53.9823C42.996 52.974 32.8216 34.3648 15.8331 31.6272C5.80858 30.0122 4.72532 38.1604 4.60267 39.1454H3.66922Z" fill="url(#paint0_linear_21_781)"></path><path opacity="0.33" d="M3.90327 34.9415C3.90327 34.9415 5.90968 25.2859 16.6598 27.5732C34.5471 31.3772 44.0558 51.8476 62.6247 53.9505C62.7371 53.9636 62.8457 53.972 62.9561 53.9823C62.1884 54.0291 61.3748 54.0329 60.5041 53.9832C42.9613 52.9749 32.8047 34.2684 15.7985 31.6281C5.57731 30.0412 4.27965 39.2006 4.27965 39.2006L3.41361 39.1463C3.41361 39.1463 3.35743 37.3328 3.84429 34.9341L3.90327 34.9415Z" fill="url(#paint1_linear_21_781)"></path><path opacity="0.4" d="M16.1374 24.5594C10.6434 24.8393 7.38617 27.2567 5.46122 30.19C7.30565 26.6042 10.7998 23.3066 17.4182 23.3066C29.6748 23.3066 36.8981 33.1234 45.7383 40.9496C36.4159 33.3743 28.4745 23.9302 16.1374 24.5594Z" fill="url(#paint2_linear_21_781)"></path><path d="M74.8804 39.1454C74.8804 39.1454 75.3775 23.3066 60.872 23.3066C43.4444 23.3066 36.1921 43.1554 20.0004 48.904C16.5775 50.1193 11.4898 50.1006 8.91321 47.8667C3.82557 43.4559 4.60266 39.1454 4.60266 39.1454H3.66921C3.66921 39.1454 2.09442 54.884 17.7899 53.9823C35.3327 52.973 45.4892 34.2675 62.4955 31.6263C72.7167 30.0393 74.0143 39.1988 74.0143 39.1988L74.8804 39.1454Z" fill="url(#paint3_linear_21_781)"></path><path opacity="0.4" d="M62.1528 24.5594C67.6468 24.8393 70.9041 27.2567 72.829 30.19C70.9846 26.6042 67.4904 23.3066 60.872 23.3066C48.6154 23.3066 41.3921 33.1234 32.5519 40.9496C41.8752 33.3743 49.8157 23.9302 62.1528 24.5594Z" fill="url(#paint4_linear_21_781)"></path><path opacity="0.18" d="M74.4179 34.9415C74.4179 34.9415 72.4114 25.2859 61.6613 27.5732C43.774 31.3772 34.2653 51.8476 15.6964 53.9505C15.5841 53.9636 15.4755 53.972 15.365 53.9823C16.1327 54.0291 16.9463 54.0329 17.8171 53.9832C35.3598 52.9749 45.5164 34.2693 62.5226 31.6281C72.7438 30.0412 74.0415 39.2006 74.0415 39.2006L74.9075 39.1463C74.9075 39.1463 74.9637 37.3328 74.4768 34.9341L74.4179 34.9415Z" fill="url(#paint5_linear_21_781)"></path><path fill-rule="evenodd" clip-rule="evenodd" d="M38.4457 2.19647C31.6035 0.0102988 23.5433 2.04012 19.2477 10.4927C21.8018 8.00223 25.7884 5.50522 29.5035 5.74022C25.4935 9.09672 22.9206 14.7134 23.8709 20.153C24.4795 18.1298 25.2931 13.4869 30.9538 10.0105C28.674 15.2545 29.0625 22.8813 33.3553 26.97C31.9518 23.2811 31.3947 15.8097 36.9767 10.033C37.0573 13.8969 37.1715 22.8616 39.2416 26.9494C41.3491 22.3046 41.4596 16.7628 41.3304 10.1201C46.3244 13.9016 47.1577 22.7821 44.9827 27.2218C49.7005 22.3898 49.6266 14.6188 47.4104 10.0882C50.4346 11.4402 53.8819 16.1337 54.3697 20.3356C55.7282 13.3211 52.4045 9.10796 48.8504 5.69715C51.9682 5.78891 57.2459 8.02377 59.0678 10.5873C55.8443 2.89773 47.388 0.142312 39.9672 2.18805C39.7705 1.44653 39.4185 0.537414 39.1536 0L38.4457 2.19647Z" fill="url(#paint6_linear_21_781)"></path><path d="M0 79.9023L0.0383864 78.2882C0.0599204 77.4072 0.0674108 76.5898 0.0599207 75.8352C0.0533669 75.0815 0.044004 74.5563 0.0318326 74.2595L0.00655381 73.7651C0.359525 73.7717 0.609506 73.7745 0.756499 73.7745C0.866978 73.7745 1.09262 73.7717 1.43342 73.7651L1.39878 75.7931L1.40439 76.2603H4.46503L4.47065 75.0441C4.46597 74.6265 4.46035 74.3522 4.45567 74.2202L4.43695 73.7651L5.18876 73.7745C5.25524 73.7745 5.47994 73.7717 5.86381 73.7651L5.81606 76.2153L5.8273 78.0317L5.85445 79.0972C5.86662 79.5353 5.87505 79.8031 5.87879 79.9023L5.17566 79.893C5.08952 79.893 4.83954 79.8958 4.42946 79.9023C4.47346 79.0541 4.48563 78.1628 4.46878 77.2274H1.39878L1.40439 78.8818L1.4278 79.9023L0.689089 79.893C0.607634 79.893 0.37825 79.8958 0 79.9023Z" fill="white"></path><path d="M7.07439 76.3321C7.10716 76.1158 7.12682 75.9651 7.13431 75.878C7.14086 75.7909 7.15491 75.6589 7.17457 75.482C7.5781 75.3865 7.93481 75.3191 8.24565 75.2797C8.55555 75.2413 8.85609 75.2217 9.14727 75.2217C9.47684 75.2217 9.78112 75.2601 10.0601 75.3359C10.3391 75.4127 10.5592 75.5344 10.723 75.702C10.8859 75.8696 10.9739 76.1111 10.987 76.4257C10.9945 76.5961 10.988 77.0324 10.9692 77.7318C10.9505 78.4321 10.9524 79.1549 10.9739 79.9011C10.7455 79.8955 10.5348 79.8918 10.3438 79.8918C10.1603 79.8918 9.9459 79.8946 9.7006 79.9011C9.72494 79.5388 9.73992 79.1184 9.74461 78.6418L9.75771 77.5221C9.6463 77.597 9.56203 77.6494 9.50305 77.6794C9.44407 77.7093 9.37759 77.7374 9.30363 77.7627C9.22966 77.788 9.09952 77.8273 8.91321 77.8797C8.72595 77.9322 8.57709 77.978 8.4638 78.0164C8.35145 78.0557 8.25033 78.0998 8.16045 78.1494C8.07151 78.199 7.99661 78.2542 7.93575 78.316C7.87489 78.3778 7.83276 78.4415 7.80654 78.5098C7.78033 78.5772 7.77003 78.6503 7.77284 78.728C7.77846 78.8534 7.81872 78.963 7.89643 79.0538C7.9732 79.1456 8.06776 79.2092 8.18105 79.2448C8.2934 79.2804 8.42448 79.2991 8.57428 79.2991C8.66978 79.2991 8.77089 79.2916 8.87669 79.2766C8.98249 79.2617 9.12386 79.2242 9.30175 79.1643C9.24558 79.3347 9.18285 79.5903 9.11263 79.9283C8.90103 79.9638 8.73251 79.9863 8.60705 79.9957C8.48159 80.005 8.36456 80.0088 8.25689 80.0088C7.87957 80.0088 7.56686 79.9573 7.31969 79.8562C7.07251 79.7551 6.88713 79.5922 6.76261 79.3703C6.63809 79.1484 6.57161 78.9255 6.56225 78.6999C6.55663 78.5716 6.57442 78.4434 6.61375 78.3179C6.65307 78.1924 6.71486 78.0763 6.79725 77.9715C6.87964 77.8666 6.98825 77.7655 7.12214 77.6681C7.25602 77.5708 7.4517 77.4762 7.70917 77.3844C7.96665 77.2927 8.30744 77.2009 8.73251 77.1083C8.84579 77.0839 8.96283 77.0549 9.08454 77.0202C9.20532 76.9856 9.30269 76.9519 9.37478 76.9191C9.44687 76.8864 9.50867 76.8433 9.56016 76.7909C9.61166 76.7384 9.65004 76.6841 9.67251 76.627C9.69592 76.5699 9.70622 76.5119 9.70341 76.4519C9.69873 76.3349 9.6566 76.2357 9.57608 76.1551C9.4965 76.0746 9.39538 76.0184 9.27273 75.9866C9.15008 75.9548 9.01526 75.9398 8.86826 75.9398C8.32149 75.9407 7.72322 76.0709 7.07439 76.3321Z" fill="white"></path><path d="M12.3427 79.9024C12.3699 79.453 12.3858 79.0766 12.3924 78.7742C12.4027 78.2948 12.4064 77.7415 12.4036 77.1151C12.4008 76.4888 12.3924 75.8942 12.3774 75.3306C12.6695 75.3372 12.8895 75.34 13.0346 75.34C13.1685 75.34 13.3867 75.3372 13.6872 75.3306C13.6685 75.8521 13.6563 76.3502 13.6507 76.823C13.646 77.2967 13.6498 77.8388 13.6638 78.4502C13.6769 79.0616 13.6919 79.5456 13.7059 79.9024C13.4325 79.8967 13.2135 79.893 13.0487 79.893C12.8933 79.893 12.6573 79.8958 12.3427 79.9024ZM12.368 74.5469C12.368 74.238 12.3633 74.0011 12.3568 73.8363L12.3512 73.6921C12.6245 73.6987 12.8464 73.7015 13.0168 73.7015C13.2509 73.7015 13.4681 73.6987 13.6685 73.6921C13.6629 73.767 13.6601 73.8522 13.661 73.9487L13.6629 74.5469C13.4354 74.5413 13.2256 74.5376 13.0328 74.5376C12.8418 74.5385 12.6199 74.5413 12.368 74.5469Z" fill="white"></path><path d="M14.6179 79.9026C14.6413 79.3961 14.6581 78.486 14.6684 77.1715C14.6787 75.857 14.6712 74.7222 14.6469 73.7654C14.9596 73.7719 15.1815 73.7747 15.3135 73.7747C15.4905 73.7747 15.7058 73.7719 15.9614 73.7654L15.9221 75.4067L15.9165 79.0665L15.9333 79.9026C15.6871 79.897 15.4783 79.8932 15.3069 79.8932C15.2498 79.8932 15.0195 79.896 14.6179 79.9026Z" fill="white"></path><path d="M19.0782 79.9026L19.1166 78.2885C19.1381 77.4074 19.1456 76.5901 19.1381 75.8355C19.1316 75.0818 19.1222 74.5565 19.11 74.2597L19.0848 73.7654C19.4377 73.7719 19.6877 73.7747 19.8347 73.7747C19.9452 73.7747 20.1708 73.7719 20.5116 73.7654L20.477 75.7933L20.4826 76.2605H23.5432L23.5489 75.0443C23.5442 74.6267 23.5386 74.3524 23.5339 74.2204L23.5152 73.7654L24.267 73.7747C24.3335 73.7747 24.5582 73.7719 24.942 73.7654L24.8943 76.2156L24.9055 78.0319L24.9327 79.0974C24.9448 79.5356 24.9533 79.8033 24.957 79.9026L24.2539 79.8932C24.1677 79.8932 23.9178 79.896 23.5077 79.9026C23.5517 79.0543 23.5638 78.163 23.547 77.2277H20.477L20.4826 78.8821L20.506 79.9026L19.7673 79.8932C19.6858 79.8932 19.4565 79.896 19.0782 79.9026Z" fill="white"></path><path d="M29.9931 78.8815C29.9613 79.0585 29.9192 79.3759 29.8658 79.8346C29.5447 79.9039 29.2741 79.9498 29.0531 79.9741C28.8322 79.9985 28.6094 80.0097 28.3847 80.0097C27.9914 80.0097 27.6394 79.9704 27.3257 79.8927C27.0121 79.815 26.734 79.6717 26.4925 79.4639C26.25 79.256 26.0674 79.0004 25.9438 78.698C25.8202 78.3956 25.7519 78.0782 25.7378 77.7458C25.7229 77.3779 25.7725 77.0202 25.8867 76.6748C26.0009 76.3293 26.1704 76.0465 26.3932 75.8256C26.6161 75.6055 26.8745 75.4492 27.1675 75.3584C27.4606 75.2666 27.7686 75.2217 28.0925 75.2217C28.3987 75.2217 28.6908 75.2601 28.9698 75.3359C29.2488 75.4127 29.4857 75.5372 29.6795 75.7104C29.8742 75.8836 30.0259 76.0924 30.1373 76.3358C30.2478 76.5802 30.3096 76.8508 30.3218 77.1504C30.3274 77.2908 30.318 77.4359 30.2946 77.5857L26.999 77.5904C26.9971 77.7018 26.998 77.7898 27.0009 77.8554C27.0093 78.0567 27.0514 78.2402 27.1272 78.4087C27.2031 78.5763 27.3089 78.7186 27.4465 78.8357C27.5832 78.9527 27.7442 79.0388 27.9296 79.0941C28.115 79.1493 28.2957 79.1774 28.4727 79.1774C28.6796 79.1774 28.9024 79.1549 29.1421 79.11C29.3808 79.066 29.6655 78.9892 29.9931 78.8815ZM27.014 77.0652L29.1187 77.0699C29.1131 76.9266 29.1037 76.8208 29.0925 76.7515C29.0803 76.6832 29.0569 76.6045 29.0222 76.5165C28.9876 76.4285 28.9408 76.3508 28.8846 76.2834C28.8275 76.216 28.7629 76.1607 28.6889 76.1158C28.615 76.0709 28.5307 76.0362 28.4352 76.0128C28.3397 75.9885 28.2386 75.9772 28.13 75.9772C28.0045 75.9772 27.8828 75.9969 27.7658 76.0353C27.6487 76.0737 27.543 76.1308 27.4465 76.2057C27.351 76.2806 27.2733 76.3639 27.2162 76.4566C27.1591 76.5493 27.116 76.6382 27.0898 76.7234C27.0636 76.8086 27.0383 76.921 27.014 77.0652Z" fill="white"></path><path d="M31.1298 76.3321C31.1625 76.1158 31.1822 75.9651 31.1897 75.878C31.1962 75.7909 31.2103 75.6589 31.23 75.482C31.6335 75.3865 31.9902 75.3191 32.301 75.2797C32.6109 75.2413 32.9115 75.2217 33.2027 75.2217C33.5322 75.2217 33.8365 75.2601 34.1155 75.3359C34.3945 75.4127 34.6145 75.5344 34.7784 75.702C34.9413 75.8696 35.0293 76.1111 35.0424 76.4257C35.0499 76.5961 35.0433 77.0324 35.0246 77.7318C35.0059 78.4321 35.0078 79.1549 35.0293 79.9011C34.8009 79.8955 34.5902 79.8918 34.3992 79.8918C34.2157 79.8918 34.0013 79.8946 33.756 79.9011C33.7803 79.5388 33.7953 79.1184 33.8 78.6418L33.8131 77.5221C33.7017 77.597 33.6174 77.6494 33.5584 77.6794C33.4995 77.7093 33.433 77.7374 33.359 77.7627C33.285 77.788 33.1549 77.8273 32.9686 77.8797C32.7813 77.9322 32.6325 77.978 32.5192 78.0164C32.4068 78.0557 32.3057 78.0998 32.2158 78.1494C32.1269 78.199 32.052 78.2542 31.9911 78.316C31.9303 78.3778 31.8881 78.4415 31.8619 78.5098C31.8357 78.5772 31.8254 78.6503 31.8282 78.728C31.8338 78.8534 31.8741 78.963 31.9518 79.0538C32.0286 79.1456 32.1231 79.2092 32.2364 79.2448C32.3488 79.2804 32.4799 79.2991 32.6297 79.2991C32.7252 79.2991 32.8263 79.2916 32.9321 79.2766C33.0379 79.2617 33.1793 79.2242 33.3571 79.1643C33.301 79.3347 33.2382 79.5903 33.168 79.9283C32.9564 79.9638 32.7879 79.9863 32.6624 79.9957C32.537 80.005 32.4199 80.0088 32.3123 80.0088C31.935 80.0088 31.6222 79.9573 31.3751 79.8562C31.1279 79.7541 30.9425 79.5922 30.818 79.3703C30.6935 79.1484 30.627 78.9255 30.6176 78.6999C30.612 78.5716 30.6298 78.4434 30.6691 78.3179C30.7085 78.1924 30.7702 78.0763 30.8526 77.9715C30.935 77.8666 31.0436 77.7655 31.1775 77.6681C31.3114 77.5708 31.5071 77.4762 31.7646 77.3844C32.022 77.2927 32.3628 77.2009 32.7879 77.1083C32.9012 77.0839 33.0182 77.0549 33.1399 77.0202C33.2607 76.9856 33.3581 76.9519 33.4302 76.9191C33.5023 76.8864 33.5641 76.8433 33.6155 76.7909C33.667 76.7384 33.7054 76.6841 33.7279 76.627C33.7513 76.5699 33.7616 76.5119 33.7588 76.4519C33.7541 76.3349 33.712 76.2357 33.6315 76.1551C33.5519 76.0746 33.4508 76.0184 33.3281 75.9866C33.2055 75.9548 33.0706 75.9398 32.9237 75.9398C32.3769 75.9407 31.7786 76.0709 31.1298 76.3321Z" fill="white"></path><path d="M35.9712 79.9026C35.9956 79.3961 36.0124 78.486 36.0218 77.1715C36.0321 75.857 36.0246 74.7222 36.0002 73.7654C36.312 73.7719 36.5348 73.7747 36.6669 73.7747C36.8438 73.7747 37.0592 73.7719 37.3148 73.7654L37.2754 75.4067L37.2698 79.0665L37.2867 79.9026C37.0404 79.897 36.8316 79.8932 36.6603 79.8932C36.6023 79.8932 36.3729 79.896 35.9712 79.9026Z" fill="white"></path><path d="M40.9914 78.9621C40.9624 79.1269 40.9175 79.4331 40.8585 79.8797C40.6094 79.9368 40.4128 79.9724 40.2696 79.9873C40.1263 80.0023 39.9915 80.0098 39.866 80.0098C39.6432 80.0098 39.4447 79.9883 39.2678 79.9471C39.0908 79.9049 38.9429 79.831 38.8249 79.7242C38.706 79.6185 38.6236 79.4939 38.5777 79.3507C38.5319 79.2084 38.5047 79.0604 38.4991 78.9078C38.4972 78.8694 38.4972 78.8161 38.4972 78.7505C38.4972 78.685 38.501 78.4715 38.5066 78.112L38.5328 76.2414H37.8849C37.8924 76.0616 37.8943 75.7723 37.8896 75.3734H38.5665C38.5777 75.2002 38.5834 74.9044 38.5843 74.4877L39.1114 74.3847C39.2219 74.3641 39.4344 74.3145 39.749 74.2368C39.7443 74.6413 39.7471 75.0205 39.7584 75.3744H40.9016C40.8969 75.7788 40.8987 76.0681 40.9062 76.2423H39.7593C39.7462 77.4622 39.7443 78.1682 39.7518 78.3601C39.7593 78.5464 39.7855 78.6897 39.8305 78.7917C39.8754 78.8938 39.9438 78.9668 40.0355 79.0118C40.1273 79.0567 40.2237 79.0792 40.3258 79.0792C40.3997 79.0792 40.4784 79.0735 40.5608 79.0614C40.6431 79.0492 40.7864 79.0164 40.9914 78.9621Z" fill="white"></path><path d="M41.4614 79.9026L41.5082 78.4411L41.5298 76.3504L41.4858 73.7654C41.7498 73.7719 41.9698 73.7747 42.144 73.7747C42.3715 73.7747 42.5896 73.7719 42.7965 73.7654L42.76 74.8355C42.7525 75.0996 42.746 75.5237 42.7404 76.1079C42.8302 75.9637 42.9061 75.8561 42.9679 75.784C43.0297 75.7119 43.0989 75.6454 43.1757 75.5836C43.2525 75.5227 43.3321 75.4703 43.4145 75.4282C43.4969 75.3861 43.5933 75.3486 43.7047 75.3158C43.8161 75.2831 43.9397 75.2578 44.0773 75.2391C44.215 75.2213 44.3554 75.2119 44.4996 75.2119C44.7477 75.2119 44.9883 75.2409 45.2205 75.2971C45.4518 75.3542 45.654 75.4497 45.8263 75.5845C45.9986 75.7194 46.1184 75.8776 46.1877 76.0592C46.256 76.2409 46.2953 76.43 46.3028 76.6275C46.3085 76.7567 46.3085 76.9571 46.3056 77.2296L46.2776 79.1948C46.2766 79.3989 46.2813 79.6339 46.2925 79.9007C46.05 79.8951 45.8356 79.8913 45.6503 79.8913C45.4499 79.8913 45.2205 79.8942 44.963 79.9007C44.9902 79.5468 45.0108 79.0646 45.0258 78.4532C45.0408 77.8419 45.0426 77.4074 45.0323 77.149C45.023 76.9122 44.9771 76.7268 44.8947 76.5938C44.8123 76.4609 44.6971 76.3616 44.5455 76.297C44.3947 76.2324 44.2309 76.2006 44.0549 76.2006C43.8274 76.2006 43.6279 76.2409 43.4585 76.3223C43.2937 76.4 43.1579 76.5171 43.0512 76.6734C42.9641 76.8026 42.893 76.9871 42.8405 77.2267C42.7844 77.4786 42.7525 77.8681 42.745 78.3961C42.7404 78.6508 42.7441 79.1536 42.7563 79.9026C42.5194 79.897 42.3153 79.8932 42.144 79.8932C41.9782 79.8932 41.7526 79.896 41.4614 79.9026Z" fill="white"></path><path d="M54.3734 78.7778C54.3219 79.1289 54.2798 79.4857 54.247 79.848C53.9081 79.9079 53.5963 79.95 53.3126 79.9735C53.0289 79.9978 52.7855 80.009 52.5814 80.009C52.132 80.009 51.6995 79.9463 51.2856 79.8199C50.8709 79.6944 50.4945 79.496 50.1546 79.2244C49.8157 78.9529 49.5638 78.6243 49.4009 78.2376C49.238 77.8509 49.1472 77.4287 49.1285 76.9699C49.1079 76.4728 49.1772 76.0121 49.3373 75.5899C49.4964 75.1676 49.7361 74.8109 50.0554 74.5197C50.3746 74.2295 50.7576 74.0123 51.2042 73.87C51.6508 73.7276 52.1198 73.6565 52.6114 73.6565C53.0973 73.6565 53.63 73.7117 54.2096 73.8231C54.2292 74.09 54.2461 74.2791 54.2601 74.3896L54.3116 74.8708C53.969 74.7809 53.6853 74.7201 53.4587 74.6864C53.2321 74.6536 53.0177 74.6368 52.8136 74.6368C52.4925 74.6368 52.1863 74.6854 51.8961 74.7828C51.6049 74.8802 51.3502 75.0356 51.133 75.2481C50.9149 75.4616 50.752 75.7181 50.6434 76.0196C50.5348 76.3211 50.487 76.6347 50.5001 76.9615C50.516 77.351 50.605 77.7002 50.7679 78.0092C50.9308 78.3181 51.1817 78.5681 51.5206 78.7601C51.8596 78.952 52.2734 79.0475 52.7621 79.0475C53.2143 79.0475 53.7517 78.9576 54.3734 78.7778Z" fill="white"></path><path d="M55.1121 79.9026C55.1365 79.3961 55.1524 78.486 55.1627 77.1715C55.173 75.857 55.1655 74.7222 55.1412 73.7654C55.4529 73.7719 55.6758 73.7747 55.8078 73.7747C55.9847 73.7747 56.2001 73.7719 56.4557 73.7654L56.4163 75.4067L56.4107 79.0665L56.4276 79.9026C56.1813 79.897 55.9735 79.8932 55.8012 79.8932C55.7441 79.8932 55.5138 79.896 55.1121 79.9026Z" fill="white"></path><path d="M62.0058 79.9022C61.7418 79.8966 61.5386 79.8929 61.3982 79.8929C61.2212 79.8929 61.0199 79.8957 60.7952 79.9022L60.7728 79.156C60.6941 79.2815 60.6248 79.3835 60.5649 79.4594C60.505 79.5361 60.4263 79.611 60.3271 79.6841C60.2279 79.758 60.1193 79.8161 60.0013 79.8591C59.8833 79.9022 59.7476 79.9387 59.594 79.9668C59.4405 79.9949 59.2776 80.0099 59.1034 80.0099C58.7682 80.0099 58.4733 79.9612 58.2214 79.8638C57.9687 79.7665 57.7655 79.6185 57.6119 79.421C57.4584 79.2234 57.3741 78.9397 57.3592 78.5709L57.3554 78.4763L57.3807 77.3163L57.3854 75.7873C57.3835 75.6647 57.3788 75.5121 57.3713 75.3286C57.6559 75.3351 57.8788 75.3379 58.0407 75.3379C58.2111 75.3379 58.4171 75.3351 58.6596 75.3286L58.595 77.379C58.5922 77.5382 58.5913 77.672 58.5913 77.7816C58.5913 77.8911 58.5922 77.9698 58.5941 78.0175C58.6034 78.2338 58.6428 78.4126 58.713 78.5549C58.7832 78.6972 58.9002 78.8059 59.0632 78.8808C59.2261 78.9557 59.3993 78.9931 59.5818 78.9931C59.755 78.9931 59.9189 78.9603 60.0715 78.8939C60.2101 78.8339 60.3271 78.7497 60.4226 78.642C60.519 78.5343 60.5977 78.3892 60.6585 78.2057C60.7044 78.0737 60.7353 77.8911 60.7531 77.6571C60.7671 77.4923 60.7756 77.2095 60.7765 76.8069C60.7812 76.321 60.7774 75.8285 60.7671 75.3276C61.0649 75.3342 61.2915 75.337 61.4478 75.337C61.6248 75.337 61.8242 75.3342 62.0461 75.3276C62.0274 75.7564 62.0124 76.292 62.0002 76.9352C61.988 77.5784 61.9824 78.1083 61.9852 78.5268C61.9871 78.9463 61.9937 79.4041 62.0058 79.9022Z" fill="white"></path><path d="M62.811 79.8174L62.6715 78.8278C62.9702 78.9476 63.222 79.0309 63.428 79.0777C63.634 79.1245 63.8222 79.147 63.9926 79.147C64.163 79.147 64.3062 79.1264 64.4214 79.0862C64.5365 79.0459 64.6208 78.986 64.6751 78.9064C64.7285 78.8268 64.7538 78.7444 64.75 78.6564C64.7481 78.618 64.7435 78.5815 64.7341 78.5487C64.7257 78.516 64.7107 78.4813 64.6892 78.4458C64.6676 78.4102 64.6442 78.3765 64.618 78.3446C64.5918 78.3128 64.5543 78.2772 64.5075 78.237C64.4607 78.1967 64.3942 78.1452 64.3081 78.0816L64.0572 77.8887C63.8156 77.7061 63.6321 77.5619 63.5048 77.4571C63.3775 77.3522 63.2698 77.2455 63.1808 77.1359C63.0928 77.0264 63.0235 76.9112 62.9758 76.7895C62.9271 76.6678 62.9009 76.5442 62.8953 76.4188C62.8859 76.1997 62.9449 75.9918 63.0694 75.7933C63.1949 75.5958 63.3831 75.4507 63.634 75.3598C63.8849 75.2681 64.1826 75.2231 64.5272 75.2231C64.9204 75.2231 65.3745 75.27 65.8904 75.3626L65.9877 76.3027C65.6338 76.1622 65.2977 76.0911 64.9766 76.0911C64.8034 76.0911 64.6517 76.1088 64.5225 76.1426C64.3933 76.1772 64.3015 76.2296 64.2482 76.2998C64.1939 76.3701 64.1686 76.4487 64.1723 76.5358C64.1742 76.5873 64.1854 76.6369 64.2051 76.6865C64.2248 76.7361 64.2585 76.7876 64.3062 76.8419C64.353 76.8962 64.4073 76.9468 64.4673 76.9946C64.5281 77.0423 64.6536 77.1369 64.8455 77.2782C65.0374 77.4196 65.205 77.5469 65.3492 77.6602C65.4934 77.7745 65.6123 77.8887 65.7078 78.0038C65.8024 78.119 65.8763 78.2426 65.9297 78.3746C65.9831 78.5066 66.013 78.6396 66.0177 78.7744C66.0271 78.9991 65.9662 79.2079 65.837 79.3998C65.7069 79.5917 65.5046 79.7415 65.2303 79.8492C64.956 79.9569 64.6461 80.0112 64.3015 80.0112C64.1218 80.0112 63.9027 79.9971 63.6433 79.9681C63.3859 79.9391 63.1078 79.8885 62.811 79.8174Z" fill="white"></path><path d="M69.5558 78.9621C69.5268 79.1269 69.4828 79.4331 69.4229 79.8797C69.1739 79.9368 68.9772 79.9724 68.834 79.9873C68.6907 80.0023 68.5559 80.0098 68.4305 80.0098C68.2086 80.0098 68.0091 79.9883 67.8322 79.9471C67.6552 79.9049 67.5073 79.831 67.3893 79.7242C67.2704 79.6185 67.189 79.4939 67.1422 79.3507C67.0963 79.2084 67.0691 79.0604 67.0635 78.9078C67.0616 78.8694 67.0616 78.8161 67.0616 78.7505C67.0616 78.685 67.0654 78.4715 67.071 78.112L67.0972 76.2414H66.4503C66.4578 76.0616 66.4587 75.7723 66.4549 75.3734H67.1319C67.1431 75.2002 67.1478 74.9044 67.1487 74.4877L67.6758 74.3847C67.7863 74.3641 67.9988 74.3145 68.3134 74.2368C68.3087 74.6413 68.3116 75.0205 68.3228 75.3744H69.466C69.4622 75.7788 69.4632 76.0681 69.4706 76.2423H68.3237C68.3106 77.4622 68.3087 78.1682 68.3162 78.3601C68.3237 78.5464 68.3499 78.6897 68.3949 78.7917C68.4398 78.8938 68.5082 78.9668 68.5999 79.0118C68.6917 79.0567 68.7881 79.0792 68.8902 79.0792C68.9651 79.0792 69.0437 79.0735 69.1252 79.0614C69.2076 79.0492 69.3517 79.0164 69.5558 78.9621Z" fill="white"></path><path d="M74.0668 78.8815C74.0349 79.0585 73.9928 79.3759 73.9394 79.8346C73.6183 79.9039 73.3477 79.9498 73.1268 79.9741C72.9058 79.9985 72.683 80.0097 72.4583 80.0097C72.0651 80.0097 71.713 79.9704 71.3994 79.8927C71.0857 79.815 70.8076 79.6717 70.5661 79.4639C70.3236 79.256 70.141 79.0004 70.0174 78.698C69.8939 78.3956 69.8255 78.0782 69.8115 77.7458C69.7965 77.3779 69.8461 77.0202 69.9603 76.6748C70.0746 76.3293 70.244 76.0465 70.4668 75.8256C70.6897 75.6055 70.9481 75.4492 71.2411 75.3584C71.5342 75.2666 71.8422 75.2217 72.1662 75.2217C72.4723 75.2217 72.7644 75.2601 73.0434 75.3359C73.3225 75.4127 73.5593 75.5372 73.7531 75.7104C73.9479 75.8836 74.0995 76.0924 74.211 76.3358C74.3214 76.5802 74.3832 76.8508 74.3954 77.1504C74.401 77.2908 74.3917 77.4359 74.3683 77.5857L71.0726 77.5904C71.0707 77.7018 71.0717 77.7898 71.0745 77.8554C71.0829 78.0567 71.125 78.2402 71.2009 78.4087C71.2767 78.5763 71.3825 78.7186 71.5201 78.8357C71.6568 78.9527 71.8179 79.0388 72.0033 79.0941C72.1886 79.1493 72.3693 79.1774 72.5463 79.1774C72.7532 79.1774 72.976 79.1549 73.2157 79.11C73.4545 79.066 73.7391 78.9892 74.0668 78.8815ZM71.0876 77.0652L73.1923 77.0699C73.1867 76.9266 73.1773 76.8208 73.1661 76.7515C73.1539 76.6832 73.1305 76.6045 73.0959 76.5165C73.0612 76.4285 73.0144 76.3508 72.9582 76.2834C72.9011 76.216 72.8365 76.1607 72.7626 76.1158C72.6886 76.0709 72.6043 76.0362 72.5088 76.0128C72.4133 75.9885 72.3122 75.9772 72.2036 75.9772C72.0782 75.9772 71.9564 75.9969 71.8394 76.0353C71.7224 76.0737 71.6166 76.1308 71.5201 76.2057C71.4246 76.2806 71.3469 76.3639 71.2898 76.4566C71.2327 76.5493 71.1896 76.6382 71.1634 76.7234C71.1372 76.8077 71.1119 76.921 71.0876 77.0652Z" fill="white"></path><path d="M75.0002 79.9026L75.0423 77.767L75.0273 76.5264C75.0227 76.2718 75.0152 76.0152 75.0049 75.7578C75.003 75.7128 74.9936 75.5705 74.9787 75.3308C75.2577 75.3374 75.4627 75.3402 75.5947 75.3402C75.7473 75.3402 75.9496 75.3374 76.2014 75.3308L76.2052 75.9647C76.3128 75.8027 76.4046 75.6819 76.4823 75.6023C76.56 75.5227 76.648 75.4544 76.7463 75.3982C76.8446 75.3411 76.9542 75.298 77.0759 75.2681C77.1976 75.2381 77.3231 75.2231 77.4513 75.2231C77.5712 75.2231 77.6947 75.2381 77.8221 75.2681C77.8333 75.5471 77.8614 75.901 77.9063 76.3289C77.7275 76.2811 77.5665 76.2568 77.4223 76.2568C77.2482 76.2568 77.0955 76.283 76.9645 76.3354C76.8324 76.3879 76.7164 76.4674 76.6143 76.5742C76.5122 76.6809 76.4299 76.812 76.3671 76.9674C76.3147 77.0929 76.2801 77.2567 76.2613 77.4571C76.2445 77.6134 76.2351 77.8793 76.2351 78.2576C76.2351 78.6349 76.2417 79.0066 76.2566 79.3727C76.2623 79.514 76.2744 79.6901 76.2922 79.9035C76.0638 79.8979 75.855 79.8942 75.6659 79.8942C75.4796 79.8932 75.2577 79.896 75.0002 79.9026Z" fill="white"></path><path d="M4.58205 70.66C4.58205 70.2621 4.27777 69.9353 3.80776 69.9353C3.35368 69.9353 3.02224 70.2564 3.02224 70.66C3.02224 71.0532 3.33776 71.3687 3.80776 71.3687C4.26091 71.3678 4.58205 71.0691 4.58205 70.66Z" fill="white"></path><path d="M2.86681 70.66C2.86681 70.2621 2.56253 69.9353 2.09252 69.9353C1.63844 69.9353 1.307 70.2564 1.307 70.66C1.307 71.0532 1.62252 71.3687 2.09252 71.3687C2.54567 71.3678 2.86681 71.0691 2.86681 70.66Z" fill="white"></path><path d="M19.4855 69.3769L24.3447 69.3816V69.3826H27.366V62.355H25.9991V68.7019H24.898H24.3447H24.2557C24.3391 67.7282 24.3447 67.0747 24.3447 66.5766C24.3447 65.0158 23.3766 64.5065 22.1201 64.5065C21.3561 64.5065 20.139 64.6947 18.7608 65.2424V64.5065H17.3995V68.701H16.8462H16.2928H16.2039C16.2647 68.0147 16.2928 67.3172 16.2928 66.5869C16.2928 65.1647 15.4961 64.5065 14.0683 64.5065C13.3043 64.5065 12.1255 64.6947 11.1911 64.9662L11.3016 65.5364C11.8718 65.3978 12.8343 65.293 13.382 65.293C14.7152 65.293 14.8763 66.0017 14.8763 67.4735C14.8763 67.7282 14.8538 68.1317 14.8154 68.7019H10.0002H9.44688V66.7208C9.44688 65.3154 8.59488 64.5074 6.66899 64.5074H4.34519V68.7019H3.34339C1.82664 68.7019 1.36226 67.8443 1.36226 66.7929C1.36226 66.2171 1.50082 65.5916 1.75549 65.0224H0.443783C0.150733 65.7527 0.000930786 66.439 0.000930786 67.0419C0.000930786 68.4416 0.643207 69.3826 3.00071 69.3826H5.71213V65.3042H6.61375C7.60431 65.3042 8.03031 65.9352 8.03031 66.7264V69.3826H9.44688H10.0002H16.2928H16.8462H19.4855V69.3769ZM18.7608 65.8126C19.8843 65.3978 20.8805 65.2977 21.4282 65.2977C22.7615 65.2977 22.9281 65.9727 22.9281 67.4614C22.9281 67.716 22.9056 68.1252 22.8673 68.701L18.7608 68.6963V65.8126Z" fill="white"></path><path d="M29.8405 62.3533H28.4736V69.3809H29.8405V62.3533Z" fill="white"></path><path d="M39.1479 69.5803V69.3809H39.7012H42.1692V64.6218H40.8079V68.7002H39.7012H39.1479V62.3533H37.7866V69.7076C37.7866 70.715 37.3877 71.141 36.2043 71.141C34.9984 71.141 34.6267 70.7094 34.6267 69.7076C34.6267 69.2591 34.682 68.5232 34.798 67.5158H33.4863C33.4311 67.8201 33.3759 68.1525 33.3206 68.5176C33.2485 69.0101 33.2101 69.364 33.2101 69.5803C33.2101 70.9585 34.0902 71.6504 36.2043 71.6504C37.781 71.6504 39.1479 71.3845 39.1479 69.5803Z" fill="white"></path><path d="M42.7123 63.3828H42.3087C41.6665 63.3828 41.2854 63.0954 41.2854 62.5252C41.2854 62.1825 41.3959 61.8614 42.0101 61.8614C42.1645 61.8614 42.3312 61.8782 42.5138 61.911V61.4241C42.2095 61.3801 41.9323 61.3521 41.6777 61.3521C40.6815 61.3521 40.2059 61.8941 40.2059 62.5252C40.2059 62.9072 40.366 63.1834 40.6263 63.3828H40.2059V63.953H42.7123V63.3828Z" fill="white"></path><path d="M51.4354 66.5879C51.4354 65.1657 50.6387 64.5075 49.2109 64.5075C48.4469 64.5075 47.2681 64.6957 46.3328 64.9672L46.4433 65.5374C47.0135 65.3988 47.976 65.2939 48.5246 65.2939C49.8578 65.2939 50.0189 66.0027 50.0189 67.4745C50.0189 67.7292 49.9964 68.1327 49.958 68.7029H45.7795H45.1859H44.6326V62.356H43.2656V69.3835H45.1859H45.7795H51.28C51.3858 68.4688 51.4354 67.5616 51.4354 66.5879Z" fill="white"></path><path d="M71.9564 70.66C71.9564 70.2621 71.6522 69.9353 71.1812 69.9353C70.7271 69.9353 70.3957 70.2564 70.3957 70.66C70.3957 71.0532 70.7112 71.3687 71.1812 71.3687C71.6353 71.3678 71.9564 71.0691 71.9564 70.66Z" fill="white"></path><path d="M77.2248 63.9529C77.6789 63.9529 78 63.6543 78 63.2442C78 62.8453 77.6957 62.5195 77.2248 62.5195C76.7707 62.5195 76.4392 62.8407 76.4392 63.2442C76.4383 63.6374 76.7538 63.9529 77.2248 63.9529Z" fill="white"></path><path d="M77.0253 64.6222H75.664V68.7006H74.5574H74.004H73.9151C73.9759 68.0143 74.0031 67.3168 74.0031 66.5865C74.0031 65.1643 73.2063 64.5061 71.7785 64.5061C71.0145 64.5061 69.8358 64.6943 68.9005 64.9658L69.0109 65.536C69.5811 65.3974 70.5436 65.2926 71.0913 65.2926C72.4245 65.2926 72.5856 66.0013 72.5856 67.4731C72.5856 67.7278 72.5631 68.1313 72.5247 68.7015H67.7095H67.1562H67.0017C67.101 68.4141 67.1562 68.0705 67.1562 67.6725C67.1562 66.4826 66.2761 65.227 64.544 65.227C62.8288 65.227 61.9375 66.4385 61.9375 67.6725C61.9375 68.0433 61.9871 68.3916 62.0873 68.7015H61.3841H60.8308H59.1755C60.1717 67.8439 60.5003 66.4994 60.5003 65.5585C60.5003 65.0716 59.4302 64.507 58.1128 64.507C56.8124 64.507 55.7038 65.0604 55.7038 65.5585C55.7038 66.5715 56.0493 67.8551 57.0399 68.7015L57.0839 68.7455C55.6289 68.9225 54.8041 69.5816 54.8041 70.6433C54.8041 71.8108 55.7338 72.5636 57.3442 72.5636C58.0192 72.5636 58.9826 72.4531 59.5472 72.3314L59.8843 72.2481L59.7625 71.7275C59.2148 71.8324 58.6774 71.8876 58.1409 71.8876C57.2225 71.8876 56.392 71.456 56.392 70.648C56.392 69.7791 57.0287 69.3915 57.9087 69.3812V68.7006C57.3058 67.5106 55.9435 65.0154 58.1138 65.0154C60.284 65.0154 58.9218 67.5059 58.3132 68.7006V69.3812H60.8317H61.3851H62.4534C62.8625 69.8905 63.5329 70.2005 64.545 70.2005C65.2865 70.2005 66.1057 69.9954 66.6197 69.3812H67.1562H67.7095H74.0022H74.5555H77.0235V64.6222H77.0253ZM64.5459 69.6911C63.6714 69.6911 63.3559 68.8775 63.3559 67.7821C63.3559 67.1014 63.4664 65.7401 64.5459 65.7401C65.6198 65.7401 65.7415 67.107 65.7415 67.7821C65.7406 68.856 65.4251 69.6911 64.5459 69.6911Z" fill="white"></path><path d="M75.5086 63.9529C75.9627 63.9529 76.2829 63.6543 76.2829 63.2442C76.2829 62.8453 75.9786 62.5195 75.5086 62.5195C75.0545 62.5195 74.7231 62.8407 74.7231 63.2442C74.7231 63.6374 75.0386 63.9529 75.5086 63.9529Z" fill="white"></path><path d="M57.4818 68.7056L57.904 68.6887C57.904 68.6887 58.0314 68.9022 58.1156 68.9022C58.1999 68.9022 58.3179 68.6962 58.3179 68.6962L58.8356 68.7056V69.3825H57.4827V68.7056H57.4818Z" fill="white"></path><defs><linearGradient id="paint0_linear_21_781" x1="8.75589" y1="25.0824" x2="67.0262" y2="51.9325" gradientUnits="userSpaceOnUse"><stop stop-color="#2E2C8A"></stop><stop offset="0.1851" stop-color="#314FAE"></stop><stop offset="0.5104" stop-color="#174E5B"></stop><stop offset="0.9347" stop-color="#037D57"></stop><stop offset="1" stop-color="#008556"></stop></linearGradient><linearGradient id="paint1_linear_21_781" x1="-1.26909" y1="27.9476" x2="28.0504" y2="41.069" gradientUnits="userSpaceOnUse"><stop offset="0.00127623" stop-color="#E1E2E2" stop-opacity="0"></stop><stop offset="1" stop-color="#E1E2E2"></stop></linearGradient><linearGradient id="paint2_linear_21_781" x1="45.6266" y1="40.6277" x2="7.95885" y2="24.2422" gradientUnits="userSpaceOnUse"><stop offset="0.001685" stop-color="#211E1F" stop-opacity="0"></stop><stop offset="1" stop-color="#211E1F"></stop></linearGradient><linearGradient id="paint3_linear_21_781" x1="7.43527" y1="54.1875" x2="55.8035" y2="31.3364" gradientUnits="userSpaceOnUse"><stop stop-color="#302E86"></stop><stop offset="0.1851" stop-color="#3A57B5"></stop><stop offset="0.5104" stop-color="#174E5B"></stop><stop offset="0.9347" stop-color="#037D57"></stop><stop offset="1" stop-color="#008556"></stop></linearGradient><linearGradient id="paint4_linear_21_781" x1="32.6639" y1="40.6277" x2="70.3317" y2="24.2422" gradientUnits="userSpaceOnUse"><stop offset="0.001685" stop-color="#211E1F" stop-opacity="0"></stop><stop offset="1" stop-color="#211E1F"></stop></linearGradient><linearGradient id="paint5_linear_21_781" x1="19.3267" y1="51.6216" x2="93.3957" y2="23.7325" gradientUnits="userSpaceOnUse"><stop offset="0.00127623" stop-color="#E1E2E2" stop-opacity="0"></stop><stop offset="1" stop-color="#E1E2E2"></stop></linearGradient><linearGradient id="paint6_linear_21_781" x1="25.6098" y1="13.2792" x2="68.17" y2="14.1361" gradientUnits="userSpaceOnUse"><stop stop-color="#2F2D96"></stop><stop offset="0.1851" stop-color="#3151B8"></stop><stop offset="0.5104" stop-color="#174E5B"></stop><stop offset="0.9347" stop-color="#037D57"></stop><stop offset="1" stop-color="#008556"></stop></linearGradient></defs></svg>