<svg xmlns="http://www.w3.org/2000/svg" width="98" height="68" viewBox="0 0 98 68" fill="none"><path d="M20.0047 63.1064C25.767 41.6144 34.0571 20.0332 44.6316 4.50586C47.7186 6.93083 50.7301 9.36951 53.6524 11.767C42.5702 25.1369 33.6593 45.6205 27.2213 67.3629C24.8718 66.0938 22.4639 64.6567 20.0047 63.1064Z" fill="#118FCD"></path><path d="M8.29831 52.6551C12.1913 35.4196 17.8575 16.7127 25.2216 0.314209C28.4526 2.32415 31.6253 4.44042 34.7363 6.591C26.8371 21.7239 20.5775 39.9814 16.0568 57.7485C13.5118 56.1021 10.9222 54.3838 8.29831 52.6551Z" fill="#07B2C1"></path><path d="M33.5494 62.1558C39.1368 46.0008 46.1098 31.3756 54.3245 20.7874C56.5334 22.4234 58.6909 24.0081 60.7831 25.5104C52.3009 34.7781 45.002 48.5458 39.051 64.4162C37.264 63.7919 35.429 63.0305 33.5494 62.1558Z" fill="#2C5CA7"></path><path d="M47.9312 61.7956C46.6656 61.5933 45.3656 61.3017 44.0417 60.9244C47.8901 51.6705 52.2152 43.3974 56.9828 36.6165C58.4474 37.3848 59.8777 38.0948 61.2771 38.7327C56.3895 44.9615 51.9271 52.8229 47.9312 61.7956Z" fill="#3B3C94"></path><path d="M5.11531 44.3615C3.4758 43.3702 1.826 42.3927 0.162476 41.4426C1.43498 35.5568 2.92358 29.3898 4.63855 23.1267C6.44269 23.9945 8.23312 24.9068 10.003 25.8466C8.15423 32.1063 6.52501 38.3351 5.11531 44.3615Z" fill="#5DB848"></path><path d="M64.8854 54.8199C64.7654 54.8199 64.7036 54.7581 64.7036 54.6381V53.5885C64.7036 53.4685 64.7654 53.4067 64.8854 53.4067H65.3004C66.278 53.4067 66.765 52.8957 66.765 51.8701V44.0053C66.765 43.8852 66.8267 43.8235 66.9468 43.8235H68.1027C68.2227 43.8235 68.2845 43.8852 68.2845 44.0053V51.8324C68.2845 52.8099 68.0375 53.5508 67.5436 54.055C67.0497 54.5626 66.326 54.813 65.3725 54.813H64.8854V54.8199Z" fill="white"></path><path d="M70.7266 39.11C70.7266 38.99 70.7883 38.9282 70.9083 38.9282H72.0642C72.1843 38.9282 72.246 38.99 72.246 39.11V48.8545C72.246 49.2146 72.3146 49.465 72.4553 49.6056C72.5925 49.7428 72.8154 49.8148 73.1138 49.8148H73.9095C74.3932 49.8148 74.6333 50.0549 74.6333 50.5386C74.6333 50.8404 74.575 51.029 74.4618 51.1079C74.3486 51.1868 74.1634 51.2246 73.9095 51.2246H72.8428C72.0848 51.2246 71.5395 51.0393 71.217 50.6723C70.8912 50.3053 70.73 49.7291 70.73 48.9471V39.11H70.7266Z" fill="white"></path><path d="M79.4215 51.2216C79.0339 51.2216 78.6977 51.1428 78.4096 50.985C78.1215 50.8272 77.8986 50.594 77.7408 50.2784C77.4389 50.9061 76.8113 51.2182 75.8612 51.2182H73.9095C73.6694 51.2182 73.4877 51.1771 73.3676 51.0913C73.2476 51.0056 73.1858 50.8375 73.1858 50.5837C73.1858 50.2818 73.2441 50.076 73.3573 49.9697C73.4705 49.86 73.6557 49.8085 73.9095 49.8085H75.5902C75.892 49.8085 76.1116 49.7399 76.2488 49.5993C76.386 49.4621 76.458 49.2117 76.458 48.8481V45.5588C76.458 45.4388 76.5163 45.377 76.6398 45.377H77.7957C77.9157 45.377 77.9774 45.4388 77.9774 45.5588V48.5772C77.9774 48.9853 78.1215 49.294 78.413 49.4998C78.7012 49.7056 79.0887 49.8085 79.5689 49.8085H80.0217C80.3235 49.8085 80.543 49.7399 80.6802 49.5993C80.8174 49.4621 80.8895 49.2117 80.8895 48.8481V45.5588C80.8895 45.4388 80.9512 45.377 81.0713 45.377H82.2271C82.3472 45.377 82.4089 45.4388 82.4089 45.5588V48.6492C82.4089 49.0368 82.5598 49.3249 82.8617 49.517C83.1635 49.709 83.5545 49.8051 84.0381 49.8051H84.4532C84.755 49.8051 84.9745 49.7365 85.1117 49.5959C85.2489 49.4587 85.3209 49.2083 85.3209 48.8447V43.9982C85.3209 43.8781 85.3793 43.8164 85.5027 43.8164H86.6586C86.7787 43.8164 86.8404 43.8781 86.8404 43.9982V48.5737C86.8404 48.9819 86.9879 49.2906 87.2829 49.4964C87.5778 49.7022 87.9723 49.8051 88.4662 49.8051H88.6651C88.9052 49.8051 89.087 49.8565 89.2071 49.9594C89.3271 50.0623 89.3888 50.2338 89.3888 50.4739C89.3888 50.786 89.3305 50.9884 89.2173 51.081C89.1042 51.1702 88.9189 51.2182 88.6651 51.2182H88.2844C87.8968 51.2182 87.5607 51.1393 87.2726 50.9815C86.9845 50.8238 86.7615 50.5905 86.6037 50.275C86.3019 50.9027 85.6742 51.2148 84.7241 51.2148H83.8564C83.4722 51.2148 83.1326 51.1359 82.8445 50.9781C82.5564 50.8203 82.3335 50.5871 82.1757 50.2716C81.8739 50.8992 81.2462 51.2114 80.2961 51.2114H79.4215V51.2216Z" fill="white"></path><path d="M94.1222 51.3484C93.5562 51.3484 93.0555 51.2661 92.6199 51.1049C92.1842 50.9437 91.8172 50.6864 91.5154 50.3366C91.2616 50.7242 90.9357 50.9677 90.5379 51.0672C90.14 51.1701 89.773 51.2215 89.4334 51.2215H88.6548C88.1747 51.2215 87.9311 50.9814 87.9311 50.4978C87.9311 50.196 87.9894 50.0073 88.1026 49.9284C88.2158 49.8495 88.401 49.8118 88.6548 49.8118H89.5603C89.6941 49.8118 89.8244 49.7844 89.9582 49.7295C90.092 49.6746 90.212 49.5854 90.3218 49.4585C90.4315 49.3316 90.5173 49.1636 90.5825 48.9509C90.6476 48.7417 90.6819 48.4776 90.6819 48.1654C90.6682 48.0454 90.6648 47.9288 90.6648 47.8122V47.4452C90.6648 46.0595 90.9735 45.0545 91.5874 44.4337C92.2014 43.8128 93.0452 43.5042 94.1187 43.5042C95.1923 43.5042 96.0361 43.8128 96.65 44.4337C97.264 45.0545 97.5727 46.0595 97.5727 47.4452C97.5727 48.1311 97.4904 48.7245 97.3292 49.2184C97.168 49.7123 96.9381 50.1171 96.6432 50.4292C96.3482 50.7413 95.9846 50.9746 95.5593 51.1255C95.1306 51.273 94.6504 51.3484 94.1222 51.3484ZM94.1222 44.9139C93.4465 44.9139 92.956 45.1368 92.6473 45.5827C92.3386 46.0286 92.1877 46.6494 92.1877 47.4452C92.1877 48.3129 92.342 48.9475 92.6473 49.3419C92.956 49.7398 93.4465 49.9387 94.1222 49.9387C94.7979 49.9387 95.2883 49.7398 95.597 49.3419C95.9057 48.944 96.0566 48.3129 96.0566 47.4452C96.0566 46.6494 95.9023 46.0286 95.597 45.5827C95.2883 45.1368 94.7944 44.9139 94.1222 44.9139Z" fill="white"></path><path d="M60.104 57.5087C60.104 57.4332 60.1418 57.3955 60.2172 57.3955H60.6494C60.7317 57.3955 60.79 57.4332 60.8209 57.5087L63.335 63.0515H63.3796L65.8389 57.5087C65.8698 57.4332 65.9212 57.3955 65.9967 57.3955H66.4391C66.5146 57.3955 66.5523 57.4332 66.5523 57.5087V65.0168C66.5523 65.0923 66.5146 65.13 66.4391 65.13H66.0172C65.9418 65.13 65.9041 65.0923 65.9041 65.0168V58.963H65.8698L63.6403 63.8678C63.6163 63.9124 63.5923 63.9467 63.5648 63.9638C63.5374 63.9844 63.4962 63.9913 63.4345 63.9913H63.2081C63.1155 63.9913 63.0538 63.9501 63.0161 63.8678L60.7866 58.963H60.7523V65.0168C60.7523 65.0923 60.7146 65.13 60.6391 65.13H60.2172C60.1418 65.13 60.104 65.0923 60.104 65.0168V57.5087Z" fill="white"></path><path d="M71.6287 57.5087C71.6527 57.4332 71.6973 57.3955 71.7659 57.3955H72.174C72.2426 57.3955 72.2872 57.4332 72.3112 57.5087L74.9969 65.0168C75.0209 65.0923 74.9934 65.13 74.918 65.13H74.4755C74.3932 65.13 74.3417 65.0923 74.328 65.0168L73.6455 63.1166H70.2773L69.5947 65.0168C69.5638 65.0923 69.5158 65.13 69.4472 65.13H69.0048C68.9293 65.13 68.9019 65.0923 68.9259 65.0168L71.6287 57.5087ZM73.4259 62.4924L71.9819 58.4416H71.9476L70.4899 62.4924H73.4259Z" fill="white"></path><path d="M79.5929 65.2431C79.3425 65.2431 79.0922 65.2191 78.8418 65.1677C78.5914 65.1196 78.3547 65.051 78.1318 64.9687C77.9088 64.8864 77.703 64.7869 77.5178 64.6772C77.3326 64.5674 77.1714 64.4542 77.0342 64.3411C76.9725 64.2896 76.969 64.2347 77.0239 64.1833L77.2983 63.8403C77.3498 63.7785 77.4046 63.7751 77.4561 63.83C77.7133 64.0289 78.0357 64.2107 78.4165 64.3754C78.8006 64.5434 79.2191 64.6257 79.6752 64.6257C80.2961 64.6257 80.7866 64.4817 81.1433 64.1936C81.5 63.9055 81.6783 63.5213 81.6783 63.0445C81.6783 62.8559 81.6475 62.6775 81.5857 62.5163C81.524 62.3517 81.4245 62.2076 81.2839 62.0773C81.1433 61.947 80.9546 61.8372 80.7145 61.748C80.4744 61.6554 80.1795 61.5902 79.8227 61.5422L79.4695 61.4976C78.7114 61.3982 78.1489 61.1752 77.7854 60.8254C77.4218 60.4755 77.24 60.0159 77.24 59.45C77.24 58.7743 77.4595 58.2426 77.8985 57.8585C78.3376 57.4709 78.931 57.2788 79.6718 57.2788C80.104 57.2788 80.5156 57.3371 80.8997 57.4537C81.2873 57.5704 81.6132 57.7281 81.8773 57.9271C81.9459 57.9648 81.9527 58.0162 81.9013 58.0848L81.6749 58.4381C81.6303 58.4896 81.5754 58.4999 81.5171 58.4621C81.205 58.2735 80.8997 58.1294 80.5945 58.0368C80.2926 57.9408 79.9737 57.8962 79.6375 57.8962C79.0853 57.8962 78.6531 58.0334 78.3444 58.3112C78.0357 58.589 77.8848 58.9526 77.8848 59.4088C77.8848 59.8032 78.022 60.1257 78.2998 60.376C78.5777 60.6264 79.0441 60.7945 79.7061 60.8768L80.0594 60.9214C80.8483 61.0277 81.4245 61.2575 81.7847 61.6108C82.1448 61.9641 82.3266 62.4271 82.3266 63.0034C82.3266 63.3292 82.2683 63.6276 82.1517 63.902C82.0351 64.1764 81.8601 64.4131 81.6337 64.612C81.4074 64.8144 81.1227 64.9687 80.7797 65.0785C80.4367 65.1882 80.0423 65.2431 79.5929 65.2431Z" fill="white"></path><path d="M87.0804 57.5087C87.1045 57.4332 87.149 57.3955 87.2176 57.3955H87.6258C87.6944 57.3955 87.739 57.4332 87.763 57.5087L90.4486 65.0168C90.4727 65.0923 90.4452 65.13 90.3698 65.13H89.9273C89.845 65.13 89.7935 65.0923 89.7798 65.0168L89.0972 63.1166H85.729L85.0465 65.0168C85.0156 65.0923 84.9676 65.13 84.899 65.13H84.4565C84.3811 65.13 84.3536 65.0923 84.3776 65.0168L87.0804 57.5087ZM88.8777 62.4924L87.4337 58.4416H87.3994L85.9417 62.4924H88.8777Z" fill="white"></path><path d="M97.4012 65.1298C97.3395 65.1298 97.2949 65.0955 97.264 65.0269L95.6382 61.669H95.525H93.5322C93.4876 61.669 93.4636 61.693 93.4636 61.7376V65.0132C93.4636 65.0886 93.4259 65.1264 93.3504 65.1264H92.9286C92.8531 65.1264 92.8154 65.0886 92.8154 65.0132V57.505C92.8154 57.4296 92.8531 57.3918 92.9286 57.3918H95.5216C96.2556 57.3918 96.8353 57.5805 97.2503 57.9612C97.6687 58.3419 97.8745 58.8633 97.8745 59.5321C97.8745 60.0706 97.7373 60.5165 97.4595 60.8698C97.1817 61.2231 96.7941 61.4598 96.2933 61.5798L97.9774 65.0063C98.0014 65.044 98.0049 65.0749 97.9946 65.0989C97.9843 65.1229 97.9603 65.1332 97.9191 65.1332H97.4012V65.1298ZM95.5113 61.0584C96.0635 61.0584 96.4888 60.9281 96.7872 60.6674C97.0822 60.4068 97.2297 60.0295 97.2297 59.5356C97.2297 59.0519 97.0822 58.6746 96.7872 58.4105C96.4923 58.1464 96.0669 58.0127 95.5113 58.0127H93.5322C93.4876 58.0127 93.4636 58.0367 93.4636 58.0813V60.9933C93.4636 61.0379 93.4876 61.0619 93.5322 61.0619H95.5113V61.0584Z" fill="white"></path></svg>