<svg xmlns="http://www.w3.org/2000/svg" width="54" height="60" viewBox="0 0 54 60" fill="none"><path d="M24.2384 6.85953C25.5044 4.57548 26.8072 2.3111 28.0314 0C29.3416 2.27176 30.5756 4.58777 31.876 6.86445C31.0328 7.58728 30.3052 8.44042 29.4375 9.12638C28.7443 9.35749 28.1617 9.79266 27.6528 10.3065C26.5073 9.16325 25.3888 7.99541 24.2384 6.85953Z" fill="#8E4D7F"></path><path d="M19.3515 40.2623C20.7453 41.703 22.2153 43.0872 23.5427 44.5821C23.7222 45.0295 23.8721 45.5212 24.2532 45.8507C25.0914 46.6719 25.9518 47.4734 26.7482 48.3388C25.6814 49.6099 24.3736 50.645 23.2478 51.8571C23.0364 52.0513 22.9208 52.3193 22.9208 52.607C22.9159 52.8381 22.648 52.9413 22.53 53.1085C21.4435 54.092 20.4626 55.1885 19.3515 56.1425C19.3835 50.8491 19.381 45.5557 19.3515 40.2623Z" fill="#8E4D7F"></path><path d="M19.2287 19.7476C19.3098 14.3607 19.1795 8.96163 19.2926 3.57727C24.6342 9.02556 30.0742 14.378 35.4527 19.7894C30.0447 19.7377 24.6367 19.8189 19.2287 19.7476Z" fill="#389BB9"></path><path d="M13.4224 40.8695C13.6068 40.6728 13.7075 40.277 14.032 40.2868C15.2365 40.2696 16.4435 40.3114 17.648 40.2721C17.6554 41.6145 17.6407 42.9544 17.653 44.2944C14.1574 46.2269 10.6373 48.1126 7.15155 50.0648C9.20414 46.9743 11.3501 43.9453 13.4224 40.8695Z" fill="#389BB9"></path><path d="M29.3047 11.6489C32.0112 9.11161 34.6144 6.46368 37.2865 3.88705C37.2914 9.17061 37.2423 14.4566 37.3111 19.7427C34.5923 17.0972 31.9817 14.3362 29.3047 11.6489Z" fill="#CB3966"></path><path d="M21.8638 40.899C22.5865 40.7146 23.3289 40.6065 24.0762 40.6409C28.3952 40.7245 32.7143 40.5843 37.0309 40.6925C37.1169 45.091 36.994 49.4943 37.0776 53.8953C37.1071 54.5591 36.9891 55.2155 36.8023 55.8499C31.8146 50.8761 26.8269 45.8974 21.8638 40.899Z" fill="#CB3966"></path><path d="M14.0468 6.99722C15.3373 8.54369 16.5935 10.1197 17.8742 11.676C17.8521 12.6742 17.8594 13.6748 17.8693 14.673C17.267 14.3411 16.623 14.0879 16.0428 13.7166C15.8142 13.4167 15.7675 13.0282 15.6544 12.6791C15.1431 10.7761 14.5433 8.90265 14.0468 6.99722Z" fill="#F89721"></path><path d="M39.0417 11.671C40.2855 10.1098 41.5072 8.51418 42.8617 7.04639C42.166 9.24685 41.5761 11.4793 40.9271 13.6945C40.2757 14.019 39.6292 14.3583 38.9827 14.6927C39.0367 13.6871 38.9138 12.6717 39.0417 11.671Z" fill="#D6CB3E"></path><path d="M27.6528 10.3065C28.1617 9.79262 28.7443 9.35745 29.4375 9.12634C28.968 9.64511 28.4542 10.1196 27.9601 10.6113L27.6528 10.3065Z" fill="#47173B"></path><path d="M7.33347 9.98935C10.8413 11.9366 14.3786 13.8248 17.8791 15.7818C17.8472 17.1144 17.8668 18.4445 17.8644 19.7771C16.591 19.7722 15.3152 19.7771 14.0419 19.7771C11.8148 16.5096 9.5655 13.2544 7.33347 9.98935Z" fill="#36BFA4"></path><path d="M38.7762 45.3786C39.408 45.7179 40.084 45.9859 40.6862 46.3817C41.4138 48.5723 41.9497 50.8269 42.6479 53.0298C41.3278 51.5571 40.1086 49.986 38.8696 48.442C38.6558 47.4561 38.8549 46.394 38.7762 45.3786Z" fill="#36BFA4"></path><path d="M38.9949 15.772C42.5101 13.8297 46.045 11.9243 49.5553 9.97458C47.2938 13.2396 45.0912 16.5489 42.7928 19.7869C41.5269 19.7525 40.2609 19.7746 38.9974 19.7722C38.9974 18.4371 38.9999 17.1046 38.9949 15.772Z" fill="#A747B6"></path><path d="M38.7885 40.2869C40.0446 40.2721 41.3007 40.3188 42.5569 40.2524C44.8946 43.4831 47.0652 46.8317 49.3685 50.0869C45.8484 48.1446 42.316 46.2269 38.7909 44.2919C38.786 42.9569 38.7934 41.6219 38.7885 40.2869Z" fill="#A747B6"></path><path d="M21.2247 40.2893C26.6229 40.2991 32.0235 40.2991 37.4242 40.2917C37.4266 45.6933 37.4021 51.0973 37.4365 56.4989C37.2226 56.2801 37.0137 56.0662 36.8023 55.8498C36.9891 55.2155 37.1071 54.5591 37.0776 53.8952C36.994 49.4943 37.1169 45.0909 37.0309 40.6925C32.7143 40.5843 28.3953 40.7244 24.0762 40.6409C23.3289 40.6064 22.5865 40.7146 21.8638 40.899C21.65 40.6949 21.4336 40.4909 21.2247 40.2893Z" fill="#CE0C46"></path><path d="M23.5427 44.582C24.8579 45.8015 26.0771 47.1218 27.348 48.3904C25.8534 49.7746 24.4744 51.2867 22.9208 52.6069C22.9208 52.3193 23.0363 52.0513 23.2478 51.8571C24.3736 50.645 25.6814 49.6099 26.7482 48.3388C25.9518 47.4734 25.0914 46.6719 24.2532 45.8507C23.8721 45.5212 23.7222 45.0295 23.5427 44.582Z" fill="#4D1B41"></path><path d="M15.5339 47.0529C15.6667 45.9785 16.9474 45.8753 17.7045 45.386C17.6234 46.2613 17.6529 47.1414 17.6578 48.0216C17.7217 48.4789 17.3235 48.7764 17.0826 49.1059C15.9739 50.4016 14.9513 51.7735 13.823 53.0569C14.381 51.0506 14.9907 49.0616 15.5339 47.0529Z" fill="#D12229"></path><path d="M24.8013 53.1897C26.1091 51.9358 27.4267 50.6966 28.7271 49.4378C29.9562 50.6966 31.1877 51.9505 32.434 53.1921C31.1779 55.4589 29.8824 57.7086 28.6705 60C27.262 57.8045 26.1091 55.4467 24.8013 53.1897Z" fill="#EEBE43"></path><path d="M7.91232 29.8508C7.91232 30.0758 7.94872 30.2776 8.02151 30.4563C8.04798 30.5158 8.07445 30.5688 8.10092 30.6151H7.50536V31.2801H10.1854V30.6151H9.42107C9.30858 30.6151 9.20601 30.5985 9.11337 30.5654C9.02073 30.5257 8.94463 30.4728 8.88507 30.4066C8.8189 30.3405 8.76927 30.2577 8.73618 30.1585C8.69648 30.0658 8.67663 29.9633 8.67663 29.8508C8.67663 29.7317 8.69648 29.6258 8.73618 29.5331C8.76927 29.4405 8.8189 29.3611 8.88507 29.2949C8.94463 29.2287 9.02073 29.1758 9.11337 29.1361C9.20601 29.103 9.30858 29.0865 9.42107 29.0865V29.5828H10.1854V28.5902C10.1391 28.5637 10.0894 28.5405 10.0365 28.5207C9.8512 28.4545 9.64606 28.4214 9.42107 28.4214C9.19609 28.4214 8.99095 28.4545 8.80566 28.5207C8.62038 28.5869 8.46156 28.6795 8.32922 28.7986C8.19687 28.9177 8.0943 29.0666 8.02151 29.2453C7.94872 29.424 7.91232 29.6258 7.91232 29.8508ZM13.59 34.1289H6.59217C5.98999 34.1289 5.51354 33.9502 5.16283 33.5929C4.81211 33.2355 4.63675 32.6565 4.63675 31.8558V31.2603H1.79792V31.8558C1.79792 32.6367 1.9071 33.3216 2.12547 33.9105C2.34384 34.4994 2.66148 34.9891 3.07837 35.3795C3.48864 35.7766 3.98825 36.0744 4.57719 36.2729C5.16613 36.4714 5.83779 36.5707 6.59217 36.5707H18.3445C18.682 36.5707 18.9699 36.4516 19.2081 36.2133C19.4463 35.9751 19.5654 35.6873 19.5654 35.3498C19.5654 35.0123 19.4463 34.7244 19.2081 34.4862C18.9699 34.248 18.682 34.1289 18.3445 34.1289H16.4387V23.5279H13.59V34.1289ZM18.3445 36.5508C19.8334 36.5508 20.9981 36.1472 21.8385 35.3398C22.6789 34.5259 23.0991 33.3679 23.0991 31.8657V29.6324H24.2704V27.1906H20.2702L20.2603 31.8657C20.2603 32.6466 20.0849 33.2157 19.7342 33.573C19.3835 33.9304 18.9202 34.109 18.3445 34.109V36.5508ZM19.9625 25.9697C20.3397 25.9697 20.6639 25.8638 20.9352 25.6521C21.2264 25.4205 21.372 25.1161 21.372 24.7389C21.372 24.3551 21.2297 24.0573 20.9451 23.8456C20.6606 23.6338 20.333 23.5279 19.9625 23.5279C19.5919 23.5279 19.2743 23.6305 19.0096 23.8356C18.7184 24.0606 18.5728 24.3617 18.5728 24.7389C18.5728 25.1161 18.7184 25.4205 19.0096 25.6521C19.2677 25.8638 19.5853 25.9697 19.9625 25.9697ZM23.3572 25.9697C23.7277 25.9697 24.0487 25.8638 24.32 25.6521C24.6111 25.4205 24.7567 25.1161 24.7567 24.7389C24.7567 24.3551 24.6145 24.0573 24.3299 23.8456C24.0454 23.6338 23.7211 23.5279 23.3572 23.5279C22.98 23.5279 22.659 23.6305 22.3943 23.8356C22.1032 24.0606 21.9576 24.3617 21.9576 24.7389C21.9576 25.1161 22.1032 25.4205 22.3943 25.6521C22.6524 25.8638 22.9734 25.9697 23.3572 25.9697ZM30.3748 36.5607C30.7123 36.5607 31.0002 36.4416 31.2384 36.2034C31.4766 35.9652 31.5957 35.6773 31.5957 35.3398C31.5957 35.0024 31.4766 34.7145 31.2384 34.4763C31.0002 34.2381 30.7123 34.1189 30.3748 34.1189C29.7793 34.1189 29.3128 33.9403 28.9753 33.5829C28.6378 33.219 28.469 32.6896 28.469 31.9948V23.5378H25.6203V31.9551C25.6203 32.6168 25.7229 33.2322 25.928 33.8013C26.1331 34.3638 26.4408 34.8502 26.8511 35.2604C27.2548 35.6707 27.7544 35.9917 28.3499 36.2233C28.9389 36.4482 29.6138 36.5607 30.3748 36.5607ZM30.3748 34.1289C30.0374 34.1289 29.7495 34.248 29.5113 34.4862C29.2731 34.7244 29.1539 35.0123 29.1539 35.3498C29.1539 35.6873 29.2731 35.9751 29.5113 36.2133C29.7495 36.4516 30.0374 36.5707 30.3748 36.5707H33.0449C33.3824 36.5707 33.6703 36.4516 33.9085 36.2133C34.1467 35.9751 34.2658 35.6873 34.2658 35.3498C34.2658 35.0123 34.1467 34.7244 33.9085 34.4862C33.6703 34.248 33.3824 34.1289 33.0449 34.1289H30.3748ZM33.0549 34.1289C32.7174 34.1289 32.4295 34.248 32.1913 34.4862C31.9531 34.7244 31.834 35.0123 31.834 35.3498C31.834 35.6873 31.9531 35.9751 32.1913 36.2133C32.4295 36.4516 32.7174 36.5707 33.0549 36.5707H35.7249C36.0624 36.5707 36.3503 36.4516 36.5885 36.2133C36.8267 35.9751 36.9458 35.6873 36.9458 35.3498C36.9458 35.0123 36.8267 34.7244 36.5885 34.4862C36.3503 34.248 36.0624 34.1289 35.7249 34.1289H33.0549ZM35.7349 34.1289C35.3974 34.1289 35.1095 34.248 34.8713 34.4862C34.6331 34.7244 34.514 35.0123 34.514 35.3498C34.514 35.6873 34.6331 35.9751 34.8713 36.2133C35.1095 36.4516 35.3974 36.5707 35.7349 36.5707H38.405C38.7424 36.5707 39.0303 36.4516 39.2685 36.2133C39.5067 35.9751 39.6259 35.6873 39.6259 35.3498C39.6259 35.0123 39.5067 34.7244 39.2685 34.4862C39.0303 34.248 38.7424 34.1289 38.405 34.1289H35.7349ZM40.0328 40.4319C40.41 40.4319 40.7343 40.326 41.0056 40.1142C41.2967 39.8826 41.4423 39.5782 41.4423 39.2011C41.4423 38.8172 41.3 38.5195 41.0155 38.3077C40.731 38.096 40.4034 37.9901 40.0328 37.9901C39.6623 37.9901 39.3446 38.0927 39.0799 38.2978C38.7888 38.5228 38.6432 38.8239 38.6432 39.2011C38.6432 39.5782 38.7888 39.8826 39.0799 40.1142C39.338 40.326 39.6556 40.4319 40.0328 40.4319ZM43.4275 40.4319C43.7981 40.4319 44.119 40.326 44.3903 40.1142C44.6815 39.8826 44.8271 39.5782 44.8271 39.2011C44.8271 38.8172 44.6848 38.5195 44.4003 38.3077C44.1157 38.096 43.7915 37.9901 43.4275 37.9901C43.0503 37.9901 42.7294 38.0927 42.4647 38.2978C42.1735 38.5228 42.0279 38.8239 42.0279 39.2011C42.0279 39.5782 42.1735 39.8826 42.4647 40.1142C42.7228 40.326 43.0437 40.4319 43.4275 40.4319ZM41.7699 35.459C42.1272 35.7766 42.554 36.0314 43.0503 36.2233C43.626 36.4416 44.2878 36.5574 45.0355 36.5707H45.0852C45.416 36.5707 45.7006 36.4516 45.9388 36.2133C46.177 35.9751 46.2961 35.6873 46.2961 35.3498C46.2961 35.0123 46.177 34.7244 45.9388 34.4862C45.7006 34.248 45.4127 34.1289 45.0752 34.1289C44.4797 34.1289 44.0131 33.9469 43.6757 33.5829C43.3382 33.2256 43.1694 32.6995 43.1694 32.0047V29.6324H44.3407V27.1906H40.3405L40.3306 31.8657C40.3306 32.6466 40.1552 33.2157 39.8045 33.573C39.4538 33.9304 38.9906 34.109 38.4149 34.109V36.5508C39.156 36.5508 39.8211 36.4482 40.41 36.2431C40.9328 36.0578 41.3861 35.7964 41.7699 35.459ZM47.9339 36.5707C48.7611 36.5707 49.5188 36.4516 50.207 36.2133C50.9018 35.9751 51.494 35.6343 51.9837 35.191C52.4734 34.741 52.8539 34.1851 53.1252 33.5234C53.4031 32.8617 53.5421 32.1073 53.5421 31.2603C53.5421 30.4199 53.4031 29.6721 53.1252 29.017C52.8539 28.3619 52.4734 27.8093 51.9837 27.3594C51.494 26.9028 50.9018 26.5587 50.207 26.327C49.5188 26.0888 48.7611 25.9697 47.9339 25.9697C46.8685 25.9697 45.9189 26.1682 45.0852 26.5653V30.2776H47.9339V28.4115C48.3508 28.4115 48.728 28.481 49.0655 28.62C49.4096 28.7523 49.7007 28.9409 49.939 29.1857C50.1772 29.4306 50.3592 29.7284 50.4849 30.0791C50.6172 30.4298 50.6834 30.8235 50.6834 31.2603C50.6834 31.6838 50.6172 32.0709 50.4849 32.4216C50.3592 32.7723 50.1772 33.0734 49.939 33.3249C49.7007 33.5763 49.4096 33.7715 49.0655 33.9105C48.728 34.0495 48.3508 34.1189 47.9339 34.1189H45.0852V36.5707H47.9339Z" fill="white"></path></svg>